<?xml version="1.0" encoding="UTF-8" standalone="no"?>
<!-- Created with Inkscape (http://www.inkscape.org/) -->

<svg
   width="80.313248mm"
   height="80.313416mm"
   viewBox="0 0 80.313248 80.313416"
   version="1.1"
   id="svg1"
   inkscape:version="1.4 (e7c3feb100, 2024-10-09)"
   sodipodi:docname="css-op.svg"
   xmlns:inkscape="http://www.inkscape.org/namespaces/inkscape"
   xmlns:sodipodi="http://sodipodi.sourceforge.net/DTD/sodipodi-0.dtd"
   xmlns="http://www.w3.org/2000/svg"
   xmlns:svg="http://www.w3.org/2000/svg">
  <sodipodi:namedview
     id="namedview1"
     pagecolor="#ffffff"
     bordercolor="#000000"
     borderopacity="0.25"
     inkscape:showpageshadow="2"
     inkscape:pageopacity="0.0"
     inkscape:pagecheckerboard="0"
     inkscape:deskcolor="#d1d1d1"
     inkscape:document-units="mm"
     inkscape:zoom="0.49264169"
     inkscape:cx="-41.612393"
     inkscape:cy="201.97235"
     inkscape:window-width="1231"
     inkscape:window-height="754"
     inkscape:window-x="0"
     inkscape:window-y="0"
     inkscape:window-maximized="1"
     inkscape:current-layer="layer1" />
  <defs
     id="defs1" />
  <g
     inkscape:label="Capa 1"
     inkscape:groupmode="layer"
     id="layer1"
     transform="translate(-116.26235,-95.265803)">
    <g
       id="g2"
       transform="matrix(2.5097892,0,0,2.5097892,107.00972,96.739873)"
       style="opacity:0.347058">
      <ellipse
         style="fill:#ffffff;stroke-width:0.607335"
         id="path1-1"
         cx="26.34708"
         cy="24.262266"
         rx="15.363601"
         ry="15.650236" />
      <g
         id="group-R5"
         transform="matrix(0.05648321,0,0,0.05648321,-2.9497745,-0.35263255)">
        <path
           id="path2-1"
           d="m 3886.57,881.141 c -1093.78,0 -1980.51,886.679 -1980.51,1980.479 0,1093.83 886.73,1980.53 1980.51,1980.53 1093.8,0 1980.5,-886.7 1980.5,-1980.53 0,-1093.8 -886.7,-1980.479 -1980.5,-1980.479 m 0,4105.039 c -1173.34,0 -2124.53,-951.18 -2124.53,-2124.53 0,-1173.37 951.19,-2124.529 2124.53,-2124.529 1173.32,0 2124.52,951.159 2124.52,2124.529 0,1173.35 -951.2,2124.53 -2124.52,2124.53"
           style="fill:#25378c;fill-opacity:1;fill-rule:evenodd;stroke:none"
           transform="matrix(0.13333333,0,0,-0.13333333,0,816)" />
        <path
           id="path3-5"
           d="m 2984.35,1563.83 -76.58,-112.45 c 4.06,-3.13 7.17,-5.43 9.34,-6.91 15.6,-10.63 30.78,-14.19 45.55,-10.66 14.76,3.51 28.75,15.01 42,34.44 13.15,19.32 18.56,36.33 16.21,51.05 -2.34,14.69 -11.89,27.76 -28.65,39.17 z m -86.76,-127.41 -49.15,-72.14 c -9.57,-14.08 -14.75,-23.52 -15.51,-28.34 -0.75,-4.83 0.34,-9.84 3.28,-15.01 2.93,-5.19 10.28,-11.78 22.05,-19.8 l -4.84,-7.1 -132.21,90.03 4.84,7.11 c 12.03,-8.19 20.94,-12.63 26.75,-13.31 5.81,-0.66 10.79,0.19 14.97,2.59 4.16,2.41 11.04,10.65 20.62,24.73 l 115,168.85 c 9.58,14.07 14.75,23.52 15.51,28.33 0.75,4.82 -0.31,9.81 -3.17,14.94 -2.87,5.14 -10.26,11.76 -22.15,19.86 l 4.84,7.11 113.39,-77.25 c 37.35,-25.43 59.62,-50.34 66.82,-74.7 7.18,-24.37 3.98,-46.53 -9.61,-66.48 -11.51,-16.88 -26.59,-27.78 -45.28,-32.66 -18.67,-4.88 -38.7,-3.22 -60.08,4.97 -14.51,5.39 -36.52,18.14 -66.07,38.27"
           style="fill:#25378c;fill-opacity:1;fill-rule:nonzero;stroke:none"
           transform="matrix(0.13333333,0,0,-0.13333333,0,816)" />
        <path
           id="path4-9"
           d="m 3213.1,1223.87 -0.86,118.12 -86.79,-80.97 z m 0.56,-18.9 -102.39,43.41 -24.15,-23.06 c -7.97,-7.71 -13.25,-14.64 -15.86,-20.77 -3.42,-8.11 -2.7,-15.49 2.23,-22.11 2.88,-3.91 11.64,-9.65 26.27,-17.18 l -3.36,-7.91 -96.4,40.85 3.34,7.91 c 11.07,-2.84 21.45,-2.15 31.14,2.07 9.68,4.21 24.12,15.28 43.32,33.2 l 201.7,187.33 4.04,-1.73 3.79,-281.97 c 0.43,-26.75 2.62,-44.4 6.55,-52.96 2.97,-6.47 8.73,-11.94 17.27,-16.4 l -3.36,-7.9 -140.22,59.43 3.36,7.91 5.76,-2.44 c 11.25,-4.78 19.83,-6.56 25.73,-5.36 4.09,0.94 7.06,3.56 8.85,7.84 1.1,2.57 1.8,5.38 2.08,8.44 0.25,1.41 0.38,7.66 0.38,18.76 l -0.07,42.64"
           style="fill:#25378c;fill-opacity:1;fill-rule:nonzero;stroke:none"
           transform="matrix(0.13333333,0,0,-0.13333333,0,816)" />
        <path
           id="path5-8"
           d="m 3574.59,1329.56 121.05,-218.13 22.27,133.48 c 3.12,18.63 2.54,31.66 -1.71,39.12 -5.85,10.07 -17.42,16.4 -34.73,18.98 l 1.43,8.46 102.58,-17.11 -1.41,-8.47 c -13.41,0.51 -22.59,-0.2 -27.54,-2.12 -4.95,-1.91 -9.19,-5.67 -12.71,-11.29 -3.53,-5.61 -6.51,-15.74 -8.96,-30.39 l -43.15,-258.531 -7.78,1.293 -166.84,293.578 -32.94,-197.39 c -2.98,-17.86 -0.9,-30.6 6.22,-38.22 7.11,-7.62 15.94,-12.31 26.48,-14.07 l 7.32,-1.22 -1.41,-8.47 -110.14,18.37 1.42,8.48 c 17.12,-2.7 29.61,-1.17 37.47,4.58 7.87,5.74 13.18,16.86 15.92,33.34 l 36.58,219.14 -5.25,9.35 c -5.2,9.34 -10.09,15.73 -14.71,19.17 -4.6,3.43 -11.61,6.09 -21.02,7.97 l 1.41,8.48 110.15,-18.38"
           style="fill:#25378c;fill-opacity:1;fill-rule:nonzero;stroke:none"
           transform="matrix(0.13333333,0,0,-0.13333333,0,816)" />
        <path
           id="path6-4"
           d="m 4023.54,1096.48 -53.95,105.08 -41.02,-111.36 z m 9.02,-16.62 -110.95,-7.35 -11.19,-31.45 c -3.66,-10.47 -5.25,-19.04 -4.81,-25.68 0.59,-8.8 4.56,-15.04 11.93,-18.739 4.34,-2.2 14.74,-3.371 31.19,-3.52 l 0.57,-8.582 -104.48,-6.91 -0.58,8.57 c 11.18,2.442 20.14,7.731 26.88,15.851 6.76,8.14 14.67,24.5 23.73,49.16 l 95.78,258.07 4.39,0.29 130.31,-250.1 c 12.44,-23.69 22.33,-38.45 29.71,-44.33 5.57,-4.45 13.16,-6.73 22.77,-6.86 l 0.59,-8.569 -151.97,-10.059 -0.57,8.559 6.25,0.418 c 12.21,0.801 20.66,3.071 25.37,6.801 3.24,2.69 4.71,6.37 4.4,10.99 -0.18,2.78 -0.83,5.6 -1.96,8.48 -0.39,1.37 -3.09,7 -8.1,16.92 l -19.26,38.04"
           style="fill:#25378c;fill-opacity:1;fill-rule:nonzero;stroke:none"
           transform="matrix(0.13333333,0,0,-0.13333333,0,816)" />
        <path
           id="path7"
           d="m 4465.98,1188.82 13.1,224.05 121.14,41.79 2.81,-8.14 -9.67,-3.33 c -8.77,-3.01 -15.27,-6.97 -19.47,-11.86 -2.95,-3.32 -4.69,-7.77 -5.22,-13.34 -0.4,-4.07 1.95,-13.5 7.03,-28.27 l 67.68,-196.2 c 5.25,-15.22 9.33,-24.46 12.25,-27.71 2.92,-3.25 7.36,-5.43 13.32,-6.57 5.95,-1.14 13.1,-0.27 21.44,2.61 l 9.67,3.33 2.8,-8.12 -155.4,-53.59 -2.79,8.11 9.66,3.34 c 8.78,3.03 15.28,6.98 19.48,11.87 2.95,3.31 4.67,7.84 5.15,13.56 0.39,4.07 -1.99,13.57 -7.13,28.49 l -76.06,220.56 -20.5,-310.83 -5.27,-1.82 -208.83,229.54 72.29,-209.59 c 5.04,-14.63 8.51,-23.52 10.41,-26.61 4.41,-6.67 10.6,-11.2 18.57,-13.62 7.94,-2.41 18.73,-1.27 32.35,3.42 l 2.79,-8.12 -101.84,-35.12 -2.79,8.13 3.07,1.05 c 6.64,2.13 12.41,5.3 17.33,9.54 4.92,4.24 8.19,8.77 9.8,13.58 1.64,4.81 2.05,10.91 1.28,18.36 -0.25,1.71 -2.68,9.21 -7.27,22.54 l -64.95,188.3 c -5.18,15.07 -9.24,24.19 -12.13,27.37 -2.89,3.19 -7.33,5.34 -13.28,6.47 -5.96,1.13 -13.11,0.27 -21.45,-2.6 l -9.43,-3.26 -2.81,8.12 121.58,41.93 151.29,-167.36"
           style="fill:#25378c;fill-opacity:1;fill-rule:nonzero;stroke:none"
           transform="matrix(0.13333333,0,0,-0.13333333,0,816)" />
        <path
           id="path8"
           d="m 4896.91,1407.66 -99.79,63.2 21.12,-116.8 z m 16.2,-9.76 -91.92,-62.6 6.31,-32.77 c 2.18,-10.89 5.14,-19.08 8.89,-24.58 4.96,-7.29 11.56,-10.66 19.8,-10.11 4.85,0.3 14.4,4.56 28.65,12.78 l 4.84,-7.1 -86.55,-58.94 -4.83,7.11 c 8.38,7.76 13.42,16.85 15.13,27.28 1.69,10.43 0.2,28.56 -4.47,54.4 l -48.33,271 3.64,2.47 239.15,-149.47 c 22.71,-14.11 38.75,-21.82 48.06,-23.14 7.06,-1.02 14.75,0.87 23.13,5.63 l 4.84,-7.1 -125.88,-85.74 -4.84,7.12 5.18,3.53 c 10.11,6.86 16.27,13.1 18.43,18.72 1.41,3.96 0.82,7.86 -1.79,11.71 -1.57,2.29 -3.56,4.4 -5.98,6.3 -1.05,0.97 -6.23,4.48 -15.57,10.47 z m -151.39,299.39 -18.17,-109.84 -16.5,-11.23 -23.09,81.75 57.76,39.32"
           style="fill:#25378c;fill-opacity:1;fill-rule:nonzero;stroke:none"
           transform="matrix(0.13333333,0,0,-0.13333333,0,816)" />
        <path
           id="path9"
           d="m 3111.89,4495.63 93.03,-144.87 -12.03,-7.72 c -33.32,32 -68.77,50.16 -106.36,54.46 -37.58,4.31 -72,-3.57 -103.24,-23.63 -26.09,-16.75 -45.21,-39.63 -57.36,-68.62 -12.15,-28.99 -15.49,-58.84 -9.98,-89.55 6.98,-39.34 22.68,-78.01 47.08,-116.03 24.02,-37.4 50.62,-68.43 79.8,-93.07 29.17,-24.65 58.87,-38.37 89.11,-41.16 30.23,-2.79 61.38,6.11 93.43,26.69 26.3,16.89 46.7,38.11 61.2,63.68 14.49,25.55 24.83,60.2 31,103.92 l 23.16,-36.06 c -7.73,-39.5 -20.74,-72.89 -39.07,-100.18 -18.32,-27.29 -44.42,-51.82 -78.33,-73.59 -44.59,-28.64 -89.94,-45.13 -136.04,-49.49 -46.11,-4.36 -89.31,4.18 -129.63,25.61 -40.3,21.41 -72.6,51.02 -96.87,88.83 -25.61,39.87 -39.45,84.38 -41.56,133.52 -2.11,49.15 8.24,94.97 31.02,137.45 22.77,42.5 54.09,76.53 93.95,102.14 29.39,18.87 64.51,32.42 105.37,40.66 23.65,4.74 38.04,8.75 43.18,12.06 6.57,4.22 10.74,10.3 12.46,18.23 1.73,7.93 -0.05,17.6 -5.35,29 l 12.03,7.72"
           style="fill:#25378c;fill-opacity:1;fill-rule:nonzero;stroke:none"
           transform="matrix(0.13333333,0,0,-0.13333333,0,816)" />
        <path
           id="path10"
           d="m 4094.94,4648.72 -1.86,-165.61 -15.02,0.53 c -5.6,41.75 -21.79,75.74 -48.6,101.97 -26.81,26.26 -56.3,39.96 -88.52,41.11 -24.88,0.88 -44.83,-5.07 -59.83,-17.85 -14.99,-12.79 -22.8,-27.85 -23.42,-45.17 -0.39,-10.98 1.83,-20.83 6.64,-29.56 6.67,-11.72 17.62,-23.47 32.84,-35.25 11.18,-8.46 37.15,-23.69 77.91,-45.67 57.07,-30.62 95.27,-58.98 114.63,-85.09 19.11,-26.09 28.08,-55.49 26.91,-88.19 -1.48,-41.49 -18.91,-76.61 -52.32,-105.35 -33.4,-28.75 -74.99,-42.22 -124.78,-40.45 -15.62,0.56 -30.33,2.67 -44.13,6.33 -13.79,3.68 -31.03,10.27 -51.7,19.81 -11.54,5.3 -21.1,8.08 -28.66,8.35 -6.35,0.23 -13.15,-1.98 -20.4,-6.6 -7.26,-4.63 -13.25,-11.86 -18,-21.72 l -13.54,0.48 6.68,187.44 13.54,-0.49 c 8.86,-53.1 28.1,-94.04 57.75,-122.83 29.64,-28.8 62.15,-43.81 97.55,-45.09 27.33,-0.96 49.36,5.7 66.13,20 16.76,14.32 25.49,31.36 26.2,51.13 0.42,11.71 -2.29,23.18 -8.12,34.37 -5.83,11.21 -14.92,21.98 -27.26,32.31 -12.34,10.34 -34.33,24.01 -65.98,41.03 -44.36,23.81 -76.14,43.88 -95.36,60.2 -19.2,16.33 -33.77,34.31 -43.71,53.99 -9.93,19.64 -14.47,41.07 -13.65,64.25 1.41,39.54 17.13,72.7 47.17,99.48 30.02,26.79 67.13,39.41 111.31,37.83 16.1,-0.57 31.65,-3.09 46.63,-7.54 11.37,-3.33 25.16,-9.26 41.35,-17.77 16.19,-8.52 27.58,-12.9 34.16,-13.14 6.36,-0.22 11.42,1.55 15.23,5.32 3.79,3.78 7.54,13.06 11.25,27.83 l 10.98,-0.39"
           style="fill:#25378c;fill-opacity:1;fill-rule:nonzero;stroke:none"
           transform="matrix(0.13333333,0,0,-0.13333333,0,816)" />
        <path
           id="path11"
           d="m 5015.08,4262.84 -89.98,-139.05 -12.4,8.46 c 17.53,38.3 21.97,75.7 13.34,112.19 -8.68,36.5 -26.31,63.82 -52.93,81.99 -20.59,14.04 -40.63,19.66 -60.12,16.85 -19.51,-2.81 -34.14,-11.38 -43.93,-25.7 -6.19,-9.07 -9.57,-18.58 -10.15,-28.53 -0.61,-13.49 2.37,-29.26 8.94,-47.34 4.93,-13.13 18.79,-39.86 41.53,-80.2 31.9,-56.36 49.07,-100.75 51.51,-133.14 2.22,-32.27 -5.87,-61.92 -24.33,-88.95 -23.4,-34.3 -56.88,-54.68 -100.47,-61.16 -43.58,-6.47 -85.95,4.32 -127.11,32.39 -12.91,8.82 -24.21,18.45 -33.93,28.92 -9.71,10.46 -20.75,25.25 -33.16,44.34 -6.93,10.64 -13.52,18.1 -19.77,22.36 -5.24,3.58 -12.18,5.35 -20.77,5.3 -8.62,-0.04 -17.54,-2.95 -26.82,-8.75 l -11.19,7.64 105.68,154.92 11.2,-7.63 c -20.84,-49.64 -26.43,-94.53 -16.72,-134.7 9.69,-40.16 29.17,-70.22 58.42,-90.18 22.59,-15.42 44.79,-21.54 66.62,-18.38 21.79,3.14 38.28,12.89 49.41,29.23 6.61,9.68 10.45,20.81 11.49,33.41 1.06,12.58 -0.89,26.54 -5.79,41.86 -4.92,15.34 -16.23,38.64 -33.91,69.92 -24.8,43.81 -40.97,77.75 -48.5,101.81 -7.53,24.05 -10.24,47.04 -8.15,68.97 2.1,21.92 9.68,42.47 22.75,61.63 22.3,32.68 53.28,52.34 92.99,58.96 39.69,6.62 77.79,-2.53 114.3,-27.44 13.33,-9.08 25.13,-19.5 35.44,-31.25 7.83,-8.9 16.31,-21.27 25.45,-37.11 9.14,-15.85 16.45,-25.63 21.9,-29.35 5.23,-3.57 10.47,-4.78 15.72,-3.62 5.22,1.16 13.34,7.01 24.36,17.52 l 9.08,-6.19"
           style="fill:#25378c;fill-opacity:1;fill-rule:nonzero;stroke:none"
           transform="matrix(0.13333333,0,0,-0.13333333,0,816)" />
        <path
           id="path12"
           d="m 5218.03,2992.88 c -40.64,43.76 -125.02,156.29 -153.17,193.8 -28.12,37.51 -25,71.89 -40.62,112.53 -15.63,40.63 -40.65,62.51 -71.9,68.77 -31.26,6.25 -53.14,43.76 -100.03,100.02 -46.88,56.27 -75.02,53.14 -84.39,40.64 -9.38,-12.51 -50.01,-18.76 -75.02,-53.14 -25.01,-34.39 -25.01,-96.9 -25.01,-96.9 0,0 -21.87,-9.38 -43.75,-59.39 -21.89,-50.01 9.38,-65.64 25,-71.9 15.63,-6.25 0,-31.25 0,-68.76 0,-37.51 -31.26,-59.39 -31.26,-128.16 0,-68.77 43.76,-78.14 71.9,-100.02 28.13,-21.88 28.13,-62.52 25.01,-75.02 -3.13,-12.5 -40.65,-43.77 -59.4,-28.13 -18.75,15.63 -50.01,31.26 -87.52,43.76 -37.51,12.5 -71.89,-6.25 -100.02,-46.89 -28.14,-40.63 -103.16,-84.4 -125.04,-156.29 -21.87,-71.89 -3.12,-118.78 0,-156.29 3.13,-37.51 -28.12,-59.39 -50.02,-59.39 -21.87,0 -50,25.01 -59.38,53.14 -9.38,28.14 -18.76,121.91 -40.64,178.17 -21.87,56.26 -43.76,121.9 -46.88,190.67 -3.13,68.77 3.12,84.4 31.26,115.65 28.12,31.27 3.12,81.27 -9.38,121.91 -12.51,40.64 -25.01,103.15 -21.88,178.17 3.12,75.02 -15.64,140.66 -21.89,196.93 -6.25,56.26 -96.89,87.52 -121.9,100.02 -25.01,12.51 -50.02,3.13 -62.52,28.13 -12.5,25.01 28.13,50.02 34.38,75.02 6.25,25.01 -37.5,71.9 -75.01,90.65 -37.51,18.76 -109.4,6.25 -131.28,-56.26 -21.88,-62.52 0,-100.03 28.13,-112.53 28.13,-12.5 25.01,-21.88 50.01,-34.39 25.01,-12.5 -12.5,-25 -34.38,-37.5 -21.88,-12.51 -18.75,-50.02 -34.38,-50.02 -15.63,0 -9.38,31.26 -18.76,43.76 -9.38,12.51 -40.63,25.01 -68.77,25.01 -28.13,0 -53.13,-28.13 -68.76,-56.26 -15.63,-28.14 -21.88,-65.65 -21.88,-100.03 0,-34.38 40.63,-25.01 46.88,-46.89 6.25,-21.88 -31.25,-43.76 -68.76,-65.64 -37.51,-21.88 -56.26,-34.38 -65.64,-78.14 -9.38,-43.77 -12.5,-106.28 -25.01,-153.17 -12.5,-46.88 -15.63,-81.27 -28.13,-125.02 -12.5,-43.77 6.25,-93.78 18.75,-106.28 12.51,-12.51 40.64,31.26 40.64,75.02 0,43.76 15.63,96.9 34.38,125.03 18.75,28.13 40.63,-28.13 37.51,-65.65 -3.13,-37.5 -6.25,-56.26 -9.38,-103.14 -3.12,-46.9 9.38,-129.73 12.5,-146.92 3.13,-17.19 10.94,-34.38 20.31,-39.07 9.38,-4.69 18.77,35.95 29.71,51.57 10.93,15.63 21.88,40.65 37.51,56.27 15.63,15.63 14.07,9.38 32.82,9.38 18.76,0 8.85,17.7 -7.82,34.38 -16.66,16.68 -29.17,45.83 -29.17,91.69 0,45.84 50.02,75.02 87.53,50 37.51,-25 45.83,-79.18 37.51,-116.68 -8.33,-37.52 -33.35,-8.34 -29.19,-45.86 4.17,-37.5 25.01,-12.5 50.02,-33.34 25,-20.84 37.51,-45.84 50.01,-83.34 12.5,-37.52 16.68,-70.86 -4.16,-50.02 -20.85,20.84 -33.35,33.34 -41.68,66.68 -8.33,33.34 -33.34,-12.5 -25,-41.68 8.33,-29.16 16.66,-62.51 25,-91.69 8.34,-29.19 8.33,-62.52 8.33,-95.85 0,-33.34 12.5,-50.02 29.18,-79.2 16.68,-29.18 4.17,-62.51 -37.51,-50.01 -41.67,12.5 -25,54.19 -25,70.86 0,16.66 -16.68,75.01 -45.85,95.86 -29.17,20.84 -41.68,-8.34 -45.85,-45.85 -4.18,-37.51 -8.33,-95.86 -41.68,-91.69 -33.34,4.18 -54.17,-12.5 -100.02,-8.34 -45.85,4.17 -50.01,54.18 -79.18,83.36 -29.17,29.18 -66.69,8.33 -66.69,33.33 0,25.01 8.34,79.2 8.34,145.88 0,66.68 0,75.02 -41.68,104.19 -41.67,29.17 -58.35,70.85 -108.36,120.87 -50.01,50.01 -75.02,25 -125.04,8.34 -50.01,-16.67 -79.18,-50.02 -79.18,-50.02 l -33.34,37.52 c -33.35,37.5 8.34,62.51 37.51,87.52 29.17,25 70.84,87.52 62.5,133.35 -8.33,45.84 -20.83,125.04 -20.83,141.72 0,16.68 25,20.83 16.67,62.51 -8.33,41.69 -41.68,66.68 -41.68,66.68 0,0 -4.16,25.01 -16.66,66.68 -12.51,41.67 -58.36,87.52 -58.36,87.52 l -50.01,20.85 c 0,0 -62.51,-62.52 -79.18,-83.36 -16.67,-20.85 -56.37,-44.13 -96.96,-61.53 -40.6,-17.4 -52.2,-63.79 -63.81,-110.2 -11.59,-46.39 -34.8,-46.39 -92.79,-127.59 -57.99,-81.2 -115.99,-150.79 -144.99,-203 -29,-52.19 5.8,-86.98 11.6,-127.57 5.8,-40.61 52.32,-37.99 46.24,-91.12 -4.74,-41.41 0,-278.19 3.13,-356.34 3.12,-78.14 59.39,-143.78 106.27,-181.29 46.89,-37.5 150.04,-84.4 225.06,-131.28 75.02,-46.9 218.8,-146.92 265.68,-196.93 46.9,-50.02 78.16,-81.27 84.41,-109.4 6.25,-28.14 3.11,-75.02 3.11,-125.03 0,-50.02 78.16,-53.15 128.17,-65.65 50.01,-12.5 59.39,-31.26 106.28,-37.51 46.89,-6.25 221.93,-12.5 275.06,-6.25 53.14,6.25 75.02,56.26 93.78,103.15 18.75,46.89 43.76,50.02 59.39,18.76 15.63,-31.26 28.13,-43.76 50,-84.4 21.88,-40.63 81.28,-37.51 118.79,-46.89 37.51,-9.38 134.4,6.26 193.8,9.38 59.39,3.13 100.02,25 187.55,78.15 87.52,53.13 75.02,87.52 78.14,146.91 3.13,59.39 15.64,78.15 37.51,90.65 21.88,12.5 106.27,109.4 171.92,153.16 65.64,43.76 171.91,87.52 265.7,143.79 93.77,56.26 128.14,90.65 134.39,131.28 6.25,40.64 21.9,53.14 46.9,75.02 25,21.87 15.61,59.38 25,150.04 9.37,90.64 -12.5,181.29 6.25,231.31 18.77,50.01 25.02,93.77 53.14,134.4 28.13,40.64 -12.5,112.53 -53.14,156.29"
           style="fill:#25378c;fill-opacity:1;fill-rule:nonzero;stroke:none"
           transform="matrix(0.13333333,0,0,-0.13333333,0,816)" />
        <path
           id="path13"
           d="m 3697.64,2728.19 c -5.27,15.85 -14.08,-19.37 -21.12,-31.69 -7.05,-12.32 -10.56,-31.68 -17.6,-47.52 -7.03,-15.84 -19.36,-15.85 -29.92,-36.97 -10.56,-21.12 -3.52,-45.76 0,-63.36 3.51,-17.6 7.83,-55.66 1.76,-72.17 -12.32,-33.44 5.27,-47.52 15.83,-43.99 10.56,3.53 14.09,15.83 15.85,38.71 1.76,22.89 -1.76,40.5 5.27,58.09 7.04,17.59 17.61,24.64 26.41,33.44 8.81,8.81 1.76,31.68 0,54.57 -1.75,22.88 10.57,44.01 12.32,61.61 1.76,17.58 -3.52,33.43 -8.8,49.28"
           style="fill:#25378c;fill-opacity:1;fill-rule:nonzero;stroke:none"
           transform="matrix(0.13333333,0,0,-0.13333333,0,816)" />
        <path
           id="path14"
           d="m 3214.4,2745.95 c -25,12.5 -43.76,12.5 -87.52,0 -43.75,-12.51 -37.5,-34.39 -40.63,-62.52 -3.12,-28.14 0,-37.51 15.63,-68.76 15.62,-31.27 32.25,5.99 68.76,-3.13 12.5,-3.13 37.51,3.13 59.39,0 21.88,-3.13 18.75,34.38 18.75,71.89 0,37.51 -9.38,50.01 -34.38,62.52"
           style="fill:#ffffff;fill-opacity:1;fill-rule:nonzero;stroke:none"
           transform="matrix(0.13333333,0,0,-0.13333333,0,816)" />
        <path
           id="path15"
           d="m 2898.7,3346.1 c 21.88,-3.13 40.63,15.63 46.88,34.38 6.25,18.75 34.39,56.26 53.14,71.89 18.76,15.63 -25.01,25.01 -43.76,-3.12 -18.75,-28.14 -57.02,-46 -71.89,-59.39 -31.26,-28.13 -6.25,-40.63 15.63,-43.76"
           style="fill:#ffffff;fill-opacity:1;fill-rule:nonzero;stroke:none"
           transform="matrix(0.13333333,0,0,-0.13333333,0,816)" />
        <path
           id="path16"
           d="m 3008.1,3208.56 c -15.63,-31.25 -34.38,-43.76 -28.13,-59.39 6.25,-15.62 12.5,-28.13 28.13,-3.12 15.63,25.01 81.27,93.77 90.65,115.65 9.37,21.88 -25.01,43.76 -46.89,9.38 -21.88,-34.39 -32.84,-40.68 -43.76,-62.52"
           style="fill:#ffffff;fill-opacity:1;fill-rule:nonzero;stroke:none"
           transform="matrix(0.13333333,0,0,-0.13333333,0,816)" />
        <path
           id="path17"
           d="m 2811.18,2158.3 c -46.88,34.39 -103.15,103.15 -143.78,140.66 -40.64,37.5 -31.26,118.77 -28.14,203.18 3.13,84.38 3.13,234.42 -6.25,293.82 -9.38,59.39 -34.38,87.52 -12.5,140.66 21.88,53.15 40.63,78.15 46.89,112.52 6.25,34.39 -6.26,37.51 -37.51,-12.5 -31.26,-50.01 -34.39,-56.26 -59.39,-78.14 -25.01,-21.88 -37.51,-31.25 -53.14,-56.26 -15.63,-25.01 6.25,-62.52 25,-87.53 18.76,-25 37.51,-37.5 37.51,-87.52 v -296.95 c 0,-59.39 9.38,-87.53 18.76,-103.15 9.38,-15.63 33.26,-79.76 78.14,-115.65 15.63,-12.5 87.53,-59.39 153.16,-100.03 65.64,-40.64 28.13,12.52 -18.75,46.89"
           style="fill:#ffffff;fill-opacity:1;fill-rule:nonzero;stroke:none"
           transform="matrix(0.13333333,0,0,-0.13333333,0,816)" />
        <path
           id="path18"
           d="m 3089.37,2986.63 c 31.26,28.14 18.75,90.65 9.38,137.53 -9.38,46.89 -21.88,46.89 -46.89,18.76 -25,-28.13 -28.13,-25.01 -53.13,-46.89 -25.01,-21.88 -28.14,-43.77 -28.14,-84.39 0,-40.64 -18.75,-43.77 -43.76,-75.02 -25,-31.26 -27.18,-75.5 -3.12,-87.52 18.75,-9.38 28.13,-65.64 28.13,-100.03 0,-34.38 -18.76,-106.28 -12.5,-131.28 6.25,-25.01 40.63,-6.25 37.51,25 -3.13,31.26 9.37,118.78 12.5,137.54 3.12,18.75 43.76,9.38 43.76,9.38 0,0 -3.13,31.26 -18.75,50.01 -15.63,18.76 -18.76,53.13 0,68.77 18.75,15.63 43.76,50.01 75.01,78.14"
           style="fill:#ffffff;fill-opacity:1;fill-rule:nonzero;stroke:none"
           transform="matrix(0.13333333,0,0,-0.13333333,0,816)" />
        <path
           id="path19"
           d="m 3276.92,2670.93 c -3.13,-43.76 -3.13,-93.78 -18.75,-93.78 -15.63,0 -56.27,-6.25 -71.9,-3.13 -24.71,4.95 -59.39,-9.37 -71.89,-12.5 -12.5,-3.12 -43.76,9.38 -43.76,25 0,15.64 -3.13,34.4 -6.25,71.9 -3.13,37.52 -21.88,53.14 9.38,78.14 31.25,25.01 65.64,50.02 100.02,40.65 34.39,-9.38 50.01,0 81.27,-28.14 31.26,-28.13 25.01,-34.38 21.88,-78.14 m 515.76,-681.43 c -50.02,40.64 -93.78,96.91 -128.16,125.04 -34.39,28.13 -50.01,56.26 -81.27,121.91 -31.26,65.63 -109.41,128.15 -156.29,159.41 -26.01,17.33 -46.89,21.87 -62.52,62.51 -15.63,40.63 0,78.15 0,121.9 0,43.78 21.88,75.03 -18.75,121.92 -40.64,46.88 -71.9,37.5 -81.27,62.52 -9.38,25 -31.26,56.26 -68.77,56.26 -37.51,0 -81.27,-12.51 -109.4,-34.39 -28.13,-21.87 -59.39,-34.38 -59.39,-78.14 0,-43.77 3.12,-115.65 6.25,-143.79 3.13,-28.13 3.13,-59.39 43.76,-100.02 40.64,-40.65 81.27,-84.41 109.4,-140.67 28.14,-56.26 50.02,-93.76 100.03,-140.66 50.01,-46.88 84.39,-71.89 125.03,-81.27 40.63,-9.37 28.13,-68.77 -6.25,-50.01 -34.39,18.75 -78.15,50.01 -115.66,78.15 -37.5,28.13 -81.26,62.52 -96.89,103.15 -15.63,40.64 -46.89,75.02 -78.15,125.03 -31.26,50.01 -84.4,112.53 -109.4,137.53 -25.01,25.01 -56.27,68.77 -68.77,87.52 -12.5,18.76 -34.38,21.89 -40.64,56.27 -6.25,34.39 21.89,59.39 21.89,100.02 0,40.64 -21.89,81.28 -34.39,103.16 -12.5,21.88 -21.88,59.39 -3.12,81.27 18.75,21.88 56.26,50 56.26,93.77 0,43.76 -9.38,71.89 -3.13,112.53 6.26,40.64 21.89,75.02 50.02,109.4 28.13,34.39 65.64,59.39 71.89,84.4 6.25,25.01 -6.25,46.89 -15.63,81.27 -9.38,34.38 -25,31.26 -40.63,9.38 -15.63,-21.88 -31.26,-65.64 -50.02,-87.52 -18.75,-21.89 -50.01,-12.51 -75.02,-6.26 -25,6.26 -75.02,28.14 -93.77,-9.37 -18.75,-37.51 -21.88,-71.9 -40.64,-103.16 -18.75,-31.25 -18.75,-96.9 -31.25,-140.66 -12.51,-43.76 -28.14,-56.26 -43.77,-112.53 -15.62,-56.26 0,-93.77 9.38,-156.29 9.38,-62.52 9.38,-137.53 3.13,-225.06 -6.25,-87.52 -43.76,-137.53 18.75,-196.92 62.52,-59.39 109.41,-106.27 175.05,-165.66 65.64,-59.39 143.79,-159.42 221.93,-218.81 78.15,-59.39 128.16,-128.16 162.54,-146.91 34.38,-18.75 46.88,-37.5 46.88,-93.78 0,-56.26 9.38,-109.4 84.4,-146.91 75.02,-37.51 194.85,-47.92 260.49,-47.92 65.65,0 101.07,-4.18 129.2,33.33 28.13,37.51 62.52,129.21 79.18,211.51 14.29,70.53 -12.5,146.92 -62.51,187.55"
           style="fill:#ffffff;fill-opacity:1;fill-rule:nonzero;stroke:none"
           transform="matrix(0.13333333,0,0,-0.13333333,0,816)" />
        <path
           id="path20"
           d="m 4529.35,2607.36 c 21.88,3.13 46.88,-3.13 59.38,0 36.52,9.13 53.15,-28.13 68.77,3.13 15.63,31.25 18.76,40.63 15.63,68.77 -3.13,28.12 3.13,50.01 -40.63,62.51 -43.77,12.51 -62.52,12.51 -87.52,0 -25.01,-12.5 -34.39,-25.01 -34.39,-62.51 0,-37.52 -3.12,-75.03 18.76,-71.9"
           style="fill:#ffffff;fill-opacity:1;fill-rule:nonzero;stroke:none"
           transform="matrix(0.13333333,0,0,-0.13333333,0,816)" />
        <path
           id="path21"
           d="m 4813.79,3376.3 c 6.25,-18.75 25.01,-37.51 46.89,-34.38 21.88,3.13 46.89,15.63 15.63,43.76 -14.87,13.39 -53.15,31.25 -71.91,59.39 -18.75,28.13 -62.51,18.75 -43.75,3.12 18.75,-15.63 46.89,-53.14 53.14,-71.89"
           style="fill:#ffffff;fill-opacity:1;fill-rule:nonzero;stroke:none"
           transform="matrix(0.13333333,0,0,-0.13333333,0,816)" />
        <path
           id="path22"
           d="m 4751.28,3141.87 c 15.62,-25 21.87,-12.5 28.12,3.13 6.25,15.62 -12.5,28.13 -28.12,59.38 -10.92,21.84 -21.89,28.14 -43.76,62.52 -21.89,34.38 -56.27,12.5 -46.89,-9.38 9.37,-21.88 75.01,-90.65 90.65,-115.65"
           style="fill:#ffffff;fill-opacity:1;fill-rule:nonzero;stroke:none"
           transform="matrix(0.13333333,0,0,-0.13333333,0,816)" />
        <path
           id="path23"
           d="m 5242.03,2898.06 c -15.63,25.01 -28.14,34.38 -53.14,56.26 -25,21.88 -28.13,28.14 -59.4,78.14 -31.25,50.02 -43.75,46.9 -37.5,12.51 6.25,-34.38 25,-59.38 46.88,-112.53 21.89,-53.13 -3.13,-81.26 -12.5,-140.66 -9.38,-59.39 -9.38,-209.43 -6.25,-293.82 3.12,-84.4 12.5,-165.67 -28.13,-203.17 -40.64,-37.51 -96.89,-106.28 -143.79,-140.67 -46.89,-34.38 -84.39,-87.52 -18.75,-46.88 65.65,40.63 137.52,87.52 153.17,100.02 44.86,35.89 68.77,100.03 78.14,115.65 9.38,15.63 18.75,43.77 18.75,103.15 v 296.95 c 0,50.02 18.75,62.52 37.5,87.53 18.77,25.01 40.65,62.51 25.02,87.52"
           style="fill:#ffffff;fill-opacity:1;fill-rule:nonzero;stroke:none"
           transform="matrix(0.13333333,0,0,-0.13333333,0,816)" />
        <path
           id="path24"
           d="m 4745.02,2904.32 c 18.76,-15.64 15.63,-50.02 0,-68.77 -15.63,-18.76 -18.75,-50.02 -18.75,-50.02 0,0 40.63,9.37 43.77,-9.38 3.12,-18.75 15.62,-106.27 12.5,-137.54 -3.13,-31.25 31.25,-50.01 37.5,-25 6.25,25 -12.5,96.9 -12.5,131.29 0,34.38 9.37,90.65 28.13,100.02 24.06,12.03 21.89,56.26 -3.12,87.52 -25.01,31.25 -43.76,34.39 -43.76,75.01 0,40.65 -3.13,62.53 -28.14,84.41 -25.01,21.88 -28.13,18.75 -53.13,46.89 -25.01,28.12 -37.52,28.12 -46.89,-18.76 -9.38,-46.88 -21.88,-109.4 9.37,-137.54 31.27,-28.13 56.27,-62.51 75.02,-78.13"
           style="fill:#ffffff;fill-opacity:1;fill-rule:nonzero;stroke:none"
           transform="matrix(0.13333333,0,0,-0.13333333,0,816)" />
        <path
           id="path25"
           d="m 4504.34,2744.9 c 31.26,28.13 46.89,18.75 81.27,28.13 34.39,9.37 68.77,-15.63 100.02,-40.64 31.26,-25.01 12.51,-40.63 9.39,-78.14 -3.13,-37.51 -6.26,-56.26 -6.26,-71.9 0,-15.63 -31.26,-28.13 -43.76,-25.01 -12.5,3.13 -47.18,17.45 -71.89,12.51 -15.63,-3.13 -56.27,3.13 -71.9,3.13 -15.62,0 -15.62,50.01 -18.75,93.77 -3.12,43.76 -9.37,50.01 21.88,78.15 m 578.28,-175.05 c -6.25,87.52 -6.25,162.54 3.12,225.05 9.38,62.52 25,100.03 9.38,156.29 -15.63,56.27 -31.27,68.77 -43.77,112.53 -12.5,43.76 -12.5,109.41 -31.25,140.66 -18.75,31.26 -21.88,65.65 -40.65,103.16 -18.75,37.51 -68.76,15.62 -93.77,9.37 -25,-6.25 -56.26,-15.63 -75.02,6.25 -18.75,21.89 -34.37,65.65 -50.01,87.53 -15.63,21.88 -31.26,25 -40.63,-9.38 -9.38,-34.38 -21.88,-56.26 -15.63,-81.27 6.25,-25.01 43.75,-50.01 71.9,-84.4 28.12,-34.38 43.75,-68.77 50,-109.4 6.26,-40.64 -3.13,-68.76 -3.13,-112.53 0,-43.76 37.52,-71.89 56.27,-93.77 18.75,-21.88 9.38,-59.39 -3.12,-81.27 -12.5,-21.89 -34.39,-62.52 -34.39,-103.15 0,-40.64 28.14,-65.64 21.89,-100.03 -6.25,-34.38 -28.14,-37.5 -40.65,-56.26 -12.5,-18.76 -43.75,-62.51 -68.76,-87.52 -25.01,-25.01 -78.14,-87.53 -109.4,-137.54 -31.25,-50.01 -62.52,-84.39 -78.14,-125.03 -15.63,-40.63 -59.4,-75.02 -96.9,-103.15 -37.52,-28.13 -81.27,-59.39 -115.66,-78.15 -34.38,-18.75 -46.88,40.64 -6.25,50.02 40.64,9.38 75.02,34.39 125.04,81.27 50.01,46.89 71.89,84.4 100.02,140.66 28.13,56.26 68.77,100.02 109.4,140.66 40.63,40.63 40.63,71.89 43.76,100.02 3.12,28.13 6.25,100.03 6.25,143.79 0,43.77 -31.25,56.27 -59.39,78.14 -28.13,21.88 -71.89,34.38 -109.4,34.38 -37.52,0 -59.39,-31.25 -68.77,-56.25 -9.37,-25.01 -40.63,-15.63 -81.27,-62.52 -40.63,-46.89 -18.75,-78.15 -18.75,-121.91 0,-43.76 15.63,-81.27 0,-121.9 -15.63,-40.64 -36.51,-45.18 -62.52,-62.52 -46.88,-31.26 -125.03,-93.77 -156.29,-159.41 -31.26,-65.65 -46.89,-93.77 -81.27,-121.91 -34.38,-28.13 -78.14,-84.4 -128.17,-125.03 -50,-40.64 -80.13,-117.78 -62.51,-187.55 21.86,-86.47 47.9,-173.99 76.03,-211.5 28.15,-37.51 80.27,-16.68 145.9,-16.68 65.65,0 171.93,-6.25 246.95,31.26 75.02,37.51 84.4,90.64 84.4,146.91 0,56.26 12.5,75.02 46.88,93.77 34.39,18.75 84.39,87.52 162.54,146.91 78.14,59.39 156.28,159.42 221.93,218.81 65.64,59.39 112.54,106.28 175.04,165.67 62.52,59.38 25.02,109.39 18.77,196.92"
           style="fill:#ffffff;fill-opacity:1;fill-rule:nonzero;stroke:none"
           transform="matrix(0.13333333,0,0,-0.13333333,0,816)" />
        <path
           id="path26"
           d="m 3937.35,2340.84 c 17.65,-4.42 48.51,0 48.51,11.03 0,11.02 11.03,24.25 -11.02,33.07 -22.06,8.82 -33.09,-2.2 -33.09,28.67 v 70.56 c 0,30.89 2.22,55.15 -15.43,59.55 -17.64,4.41 -24.24,2.19 -19.84,-22.06 5.93,-32.62 -2.21,-63.95 -8.82,-77.18 -6.62,-13.23 -4.42,-61.75 0,-77.18 4.41,-15.43 22.04,-22.05 39.69,-26.46"
           style="fill:#ffffff;fill-opacity:1;fill-rule:nonzero;stroke:none"
           transform="matrix(0.13333333,0,0,-0.13333333,0,816)" />
        <path
           id="path27"
           d="m 3917.51,2687.05 c 8.82,-35.28 2.2,-37.48 30.87,-77.17 28.67,-39.7 33.08,-79.38 39.69,-105.86 7.46,-29.8 19.86,-57.32 35.29,-72.77 15.43,-15.44 22.07,-50.73 28.67,-55.14 6.6,-4.4 24.25,15.45 37.48,15.45 13.24,0 28.65,17.64 19.85,33.08 -8.81,15.43 -15.42,19.85 -28.66,28.66 -13.24,8.82 -22.07,50.71 -30.88,79.39 -8.82,28.66 -24.26,77.17 -28.67,108.05 -4.41,30.88 -24.26,63.97 -28.67,99.24 -4.41,35.28 -8.81,61.74 8.83,81.59 17.64,19.86 55.12,41.9 57.32,72.77 2.21,30.88 -6.6,39.7 -13.22,68.37 -6.62,28.68 -24.26,68.36 -35.29,90.41 -11.02,22.06 -22.05,35.28 -28.66,37.49 -6.62,2.21 -28.69,-6.62 -35.29,11.02 -6.61,17.65 2.21,24.26 13.23,44.11 11.03,19.85 0,37.49 -11.02,68.37 -11.03,30.87 -41.91,41.9 -63.96,35.28 -22.05,-6.62 -59.55,-57.34 -50.72,-83.8 8.83,-26.46 28.67,-46.31 41.91,-57.33 13.23,-11.03 15.44,-13.24 13.23,-24.27 -2.21,-11.02 -4.42,6.63 -26.47,-17.63 -22.05,-24.26 -28.67,-41.91 -33.08,-70.57 -4.41,-28.67 -2.21,-59.54 -11.02,-81.59 -8.82,-22.05 0.01,-74.97 -2.2,-90.41 -2.21,-15.45 -17.66,-17.66 2.2,-26.48 19.85,-8.81 44.1,26.49 46.31,44.12 2.21,17.63 -15.42,22.05 2.21,44.1 17.63,22.05 33.08,-15.44 37.48,-24.26 4.41,-8.81 -11.03,-48.52 -13.23,-74.98 -2.2,-26.47 17.66,-63.95 26.47,-99.24"
           style="fill:#ffffff;fill-opacity:1;fill-rule:nonzero;stroke:none"
           transform="matrix(0.13333333,0,0,-0.13333333,0,816)" />
      </g>
    </g>
  </g>
</svg>
