<?xml version="1.0" encoding="UTF-8" standalone="no"?>
<!-- Created with Inkscape (http://www.inkscape.org/) -->

<svg
   width="36mm"
   height="36mm"
   viewBox="0 0 36 36"
   version="1.1"
   id="svg1"
   inkscape:version="1.4 (e7c3feb100, 2024-10-09)"
   sodipodi:docname="css-logo.svg"
   inkscape:export-filename="Descargas/favicon/apple-touch-icon.png"
   inkscape:export-xdpi="127"
   inkscape:export-ydpi="127"
   xmlns:inkscape="http://www.inkscape.org/namespaces/inkscape"
   xmlns:sodipodi="http://sodipodi.sourceforge.net/DTD/sodipodi-0.dtd"
   xmlns="http://www.w3.org/2000/svg"
   xmlns:svg="http://www.w3.org/2000/svg">
  <sodipodi:namedview
     id="namedview1"
     pagecolor="#ffffff"
     bordercolor="#000000"
     borderopacity="0.25"
     inkscape:showpageshadow="2"
     inkscape:pageopacity="0.0"
     inkscape:pagecheckerboard="0"
     inkscape:deskcolor="#d1d1d1"
     inkscape:document-units="mm"
     inkscape:zoom="1.3934011"
     inkscape:cx="-32.653913"
     inkscape:cy="112.31511"
     inkscape:window-width="1231"
     inkscape:window-height="754"
     inkscape:window-x="0"
     inkscape:window-y="0"
     inkscape:window-maximized="1"
     inkscape:current-layer="layer1" />
  <defs
     id="defs1" />
  <g
     inkscape:label="Capa 1"
     inkscape:groupmode="layer"
     id="layer1"
     transform="translate(-89.164582,-132.55624)">
    <ellipse
       style="fill:#ffffff;stroke-width:0.607335"
       id="path1-1"
       cx="107.19135"
       cy="150.63223"
       rx="15.363601"
       ry="15.650236" />
    <path
       id="path2-1"
       d="m 107.1646,165.47169 c -8.237356,0 -14.9154,-6.67766 -14.9154,-14.91517 0,-8.23773 6.678044,-14.91555 14.9154,-14.91555 8.23751,0 14.91532,6.67782 14.91532,14.91555 0,8.23751 -6.67781,14.91517 -14.91532,14.91517 m 0,-30.91542 c -8.83653,0 -16.000027,7.16342 -16.000027,16.00003 0,8.83675 7.163497,16.00002 16.000027,16.00002 8.83638,0 15.99995,-7.16327 15.99995,-16.00002 0,-8.83661 -7.16357,-16.00003 -15.99995,-16.00003"
       style="fill:#0058a6;fill-opacity:1;fill-rule:evenodd;stroke:none;stroke-width:0.00753109" />
    <path
       id="path3-5"
       d="m 100.3699,160.3303 -0.576731,0.84687 c 0.03058,0.0236 0.054,0.0409 0.07034,0.052 0.117485,0.08 0.231811,0.10686 0.343041,0.0803 0.11116,-0.0264 0.21652,-0.11304 0.31631,-0.25937 0.099,-0.1455 0.13977,-0.27361 0.12207,-0.38447 -0.0176,-0.11063 -0.0895,-0.20906 -0.21576,-0.29499 z m -0.653398,0.95953 -0.370153,0.54329 c -0.07207,0.10604 -0.111084,0.17714 -0.116807,0.21344 -0.0056,0.0364 0.0026,0.0741 0.0247,0.11304 0.02207,0.0391 0.07742,0.0887 0.16606,0.14911 l -0.03645,0.0535 -0.995686,-0.67802 0.03645,-0.0536 c 0.0906,0.0617 0.157701,0.0951 0.201457,0.10024 0.04376,0.005 0.08126,-0.001 0.11274,-0.0195 0.03133,-0.0182 0.08314,-0.0802 0.155291,-0.18625 l 0.866075,-1.27162 c 0.07215,-0.10596 0.111084,-0.17713 0.116808,-0.21336 0.0056,-0.0363 -0.0023,-0.0739 -0.02387,-0.11251 -0.02161,-0.0387 -0.07727,-0.0886 -0.166814,-0.14957 l 0.03645,-0.0536 0.853947,0.58178 c 0.28129,0.19152 0.44901,0.37912 0.50323,0.56257 0.0541,0.18354 0.03,0.35043 -0.0724,0.50067 -0.0867,0.12713 -0.20025,0.20921 -0.34101,0.24597 -0.14061,0.0368 -0.29145,0.0242 -0.45247,-0.0374 -0.10927,-0.0406 -0.275034,-0.13662 -0.497578,-0.28822"
       style="fill:#0058a6;fill-opacity:1;fill-rule:nonzero;stroke:none;stroke-width:0.00753109" />
    <path
       id="path4-9"
       d="m 102.09264,162.89056 -0.006,-0.88957 -0.65362,0.60979 z m 0.004,0.14234 -0.7711,-0.32692 -0.18188,0.17366 c -0.06,0.0581 -0.0998,0.11026 -0.11944,0.15643 -0.0258,0.0611 -0.0203,0.11665 0.0168,0.16651 0.0217,0.0294 0.0877,0.0727 0.19784,0.12938 l -0.0253,0.0596 -0.726,-0.30764 0.0252,-0.0596 c 0.0834,0.0214 0.16155,0.0162 0.23452,-0.0156 0.0729,-0.0317 0.18165,-0.11508 0.32625,-0.25003 l 1.51902,-1.4108 0.0304,0.013 0.0285,2.12354 c 0.003,0.20145 0.0197,0.33438 0.0493,0.39884 0.0224,0.0487 0.0657,0.0899 0.13006,0.12351 l -0.0253,0.0595 -1.05601,-0.44757 0.0253,-0.0596 0.0434,0.0184 c 0.0847,0.036 0.14934,0.0494 0.19377,0.0404 0.0308,-0.007 0.0532,-0.0268 0.0666,-0.059 0.008,-0.0194 0.0136,-0.0405 0.0157,-0.0636 0.002,-0.0106 0.003,-0.0577 0.003,-0.14128 l -5.3e-4,-0.32113"
       style="fill:#0058a6;fill-opacity:1;fill-rule:nonzero;stroke:none;stroke-width:0.00753109" />
    <path
       id="path5-8"
       d="m 104.81505,162.0946 0.91164,1.64276 0.16772,-1.00525 c 0.0235,-0.1403 0.0191,-0.23843 -0.0129,-0.29462 -0.0441,-0.0758 -0.13119,-0.12351 -0.26156,-0.14294 l 0.0108,-0.0637 0.77254,0.12886 -0.0106,0.0638 c -0.10099,-0.004 -0.17012,0.002 -0.2074,0.016 -0.0373,0.0144 -0.0692,0.0427 -0.0957,0.085 -0.0266,0.0422 -0.049,0.11854 -0.0675,0.22887 l -0.32497,1.94702 -0.0586,-0.01 -1.25649,-2.21096 -0.24807,1.48656 c -0.0224,0.13451 -0.007,0.23045 0.0468,0.28784 0.0536,0.0574 0.12005,0.0927 0.19942,0.10596 l 0.0551,0.009 -0.0106,0.0638 -0.82947,-0.13835 0.0107,-0.0639 c 0.12894,0.0203 0.223,0.009 0.28219,-0.0345 0.0593,-0.0432 0.0993,-0.12698 0.1199,-0.25109 l 0.27549,-1.65036 -0.0395,-0.0704 c -0.0392,-0.0703 -0.076,-0.11846 -0.11078,-0.14437 -0.0346,-0.0258 -0.0874,-0.0459 -0.15831,-0.06 l 0.0106,-0.0639 0.82955,0.13842"
       style="fill:#0058a6;fill-opacity:1;fill-rule:nonzero;stroke:none;stroke-width:0.00753109" />
    <path
       id="path6-4"
       d="m 108.19613,163.84995 -0.4063,-0.79137 -0.30892,0.83867 z m 0.0679,0.12517 -0.83557,0.0554 -0.0843,0.23685 c -0.0276,0.0788 -0.0395,0.1434 -0.0362,0.1934 0.004,0.0663 0.0343,0.11327 0.0898,0.14113 0.0327,0.0166 0.11101,0.0254 0.23489,0.0265 l 0.004,0.0646 -0.78684,0.052 -0.004,-0.0645 c 0.0842,-0.0184 0.15167,-0.0582 0.20243,-0.11938 0.0509,-0.0613 0.11049,-0.18451 0.17872,-0.37023 l 0.72132,-1.94355 0.0331,-0.002 0.98137,1.88353 c 0.0937,0.17841 0.16817,0.28957 0.22375,0.33385 0.0419,0.0335 0.0991,0.0507 0.17148,0.0517 l 0.004,0.0645 -1.1445,0.0757 -0.004,-0.0645 0.0471,-0.003 c 0.092,-0.006 0.1556,-0.0231 0.19107,-0.0512 0.0244,-0.0203 0.0355,-0.048 0.0331,-0.0828 -0.001,-0.0209 -0.006,-0.0422 -0.0148,-0.0639 -0.003,-0.0103 -0.0233,-0.0527 -0.061,-0.12743 l -0.14505,-0.28648"
       style="fill:#0058a6;fill-opacity:1;fill-rule:nonzero;stroke:none;stroke-width:0.00753109" />
    <path
       id="path7"
       d="m 111.52819,163.15453 0.0987,-1.68734 0.91231,-0.31473 0.0212,0.0613 -0.0728,0.0251 c -0.0661,0.0227 -0.115,0.0525 -0.14663,0.0893 -0.0222,0.025 -0.0353,0.0585 -0.0393,0.10047 -0.003,0.0307 0.0147,0.10167 0.0529,0.2129 l 0.5097,1.4776 c 0.0395,0.11463 0.0703,0.18421 0.0923,0.20869 0.022,0.0245 0.0554,0.0409 0.10031,0.0495 0.0448,0.009 0.0987,0.002 0.16147,-0.0197 l 0.0728,-0.0251 0.0211,0.0612 -1.17033,0.40359 -0.021,-0.0611 0.0727,-0.0251 c 0.0661,-0.0228 0.11508,-0.0526 0.14671,-0.0894 0.0222,-0.0249 0.0352,-0.059 0.0388,-0.10212 0.003,-0.0307 -0.015,-0.1022 -0.0537,-0.21456 l -0.57281,-1.66106 -0.15439,2.34089 -0.0397,0.0137 -1.57271,-1.72869 0.54442,1.57844 c 0.0379,0.11018 0.0641,0.17713 0.0784,0.20041 0.0332,0.0502 0.0798,0.0843 0.13985,0.10257 0.0598,0.0181 0.14106,0.01 0.24363,-0.0258 l 0.021,0.0612 -0.76696,0.26449 -0.021,-0.0612 0.0231,-0.008 c 0.05,-0.016 0.0935,-0.0399 0.13052,-0.0718 0.037,-0.0319 0.0617,-0.066 0.0738,-0.10228 0.0123,-0.0362 0.0154,-0.0822 0.01,-0.13827 -0.002,-0.0129 -0.0202,-0.0694 -0.0547,-0.16975 l -0.48914,-1.4181 c -0.039,-0.1135 -0.0696,-0.18218 -0.0914,-0.20613 -0.0218,-0.024 -0.0552,-0.0402 -0.10002,-0.0487 -0.0449,-0.009 -0.0987,-0.002 -0.16154,0.0196 l -0.071,0.0246 -0.0212,-0.0612 0.91563,-0.31577 1.13938,1.2604"
       style="fill:#0058a6;fill-opacity:1;fill-rule:nonzero;stroke:none;stroke-width:0.00753109" />
    <path
       id="path8"
       d="m 114.77356,161.50643 -0.75153,-0.47597 0.15906,0.87963 z m 0.122,0.0735 -0.69225,0.47145 0.0475,0.24679 c 0.0164,0.082 0.0387,0.14369 0.067,0.18511 0.0374,0.0549 0.0871,0.0803 0.14911,0.0761 0.0365,-0.002 0.10845,-0.0343 0.21577,-0.0962 l 0.0365,0.0535 -0.65181,0.44388 -0.0364,-0.0536 c 0.0631,-0.0584 0.10107,-0.1269 0.11395,-0.20545 0.0127,-0.0785 0.002,-0.21508 -0.0337,-0.40969 l -0.36398,-2.04092 0.0274,-0.0186 1.80106,1.12567 c 0.17103,0.10626 0.29183,0.16433 0.36194,0.17427 0.0532,0.008 0.11109,-0.007 0.1742,-0.0424 l 0.0365,0.0535 -0.94802,0.64571 -0.0365,-0.0536 0.039,-0.0266 c 0.0761,-0.0517 0.12253,-0.0987 0.1388,-0.14098 0.0106,-0.0298 0.006,-0.0592 -0.0135,-0.0882 -0.0118,-0.0173 -0.0268,-0.0331 -0.045,-0.0474 -0.008,-0.007 -0.0469,-0.0337 -0.11725,-0.0789 z m -1.14013,-2.25473 -0.13684,0.82721 -0.12426,0.0846 -0.17389,-0.61567 0.43499,-0.29612"
       style="fill:#0058a6;fill-opacity:1;fill-rule:nonzero;stroke:none;stroke-width:0.00753109" />
    <path
       id="path9"
       d="m 101.33041,138.25065 0.70062,1.09102 -0.0906,0.0581 c -0.25093,-0.24099 -0.51791,-0.37775 -0.801,-0.41014 -0.28302,-0.0325 -0.54224,0.0269 -0.77751,0.17796 -0.19649,0.12615 -0.34048,0.29846 -0.431987,0.51678 -0.0915,0.21833 -0.116656,0.44313 -0.07516,0.67441 0.05257,0.29628 0.170807,0.5875 0.354567,0.87384 0.18089,0.28166 0.38122,0.51535 0.60098,0.70091 0.21968,0.18565 0.44335,0.28897 0.67109,0.30998 0.22767,0.021 0.46226,-0.046 0.70363,-0.201 0.19807,-0.1272 0.3517,-0.28701 0.46091,-0.47958 0.10912,-0.19242 0.18699,-0.45337 0.23346,-0.78263 l 0.17442,0.27157 c -0.0582,0.29748 -0.1562,0.54894 -0.29424,0.75446 -0.13797,0.20553 -0.33453,0.39027 -0.58991,0.55422 -0.33581,0.21569 -0.67735,0.33988 -1.02453,0.37271 -0.34726,0.0328 -0.6726,-0.0315 -0.97626,-0.19287 -0.303498,-0.16124 -0.546752,-0.38424 -0.729532,-0.66899 -0.192871,-0.30026 -0.297102,-0.63547 -0.312992,-1.00555 -0.01589,-0.37015 0.06206,-0.71523 0.233614,-1.03515 0.171483,-0.32007 0.407357,-0.57635 0.70755,-0.76922 0.22133,-0.14211 0.48583,-0.24416 0.79355,-0.30622 0.17811,-0.0357 0.28648,-0.0659 0.32519,-0.0908 0.0495,-0.0318 0.0809,-0.0776 0.0938,-0.13729 0.013,-0.0597 -3.8e-4,-0.13255 -0.0403,-0.2184 l 0.0906,-0.0581"
       style="fill:#0058a6;fill-opacity:1;fill-rule:nonzero;stroke:none;stroke-width:0.00753109" />
    <path
       id="path10"
       d="m 108.73385,137.09771 -0.014,1.24723 -0.11311,-0.004 c -0.0422,-0.31442 -0.1641,-0.5704 -0.36601,-0.76794 -0.20191,-0.19777 -0.424,-0.30094 -0.66666,-0.3096 -0.18737,-0.007 -0.33761,0.0382 -0.45058,0.13443 -0.11289,0.0963 -0.17171,0.20974 -0.17638,0.34017 -0.003,0.0827 0.0138,0.15688 0.05,0.22262 0.0502,0.0883 0.1327,0.17676 0.24732,0.26547 0.0842,0.0637 0.27978,0.17842 0.58675,0.34395 0.4298,0.2306 0.71748,0.44418 0.86329,0.64082 0.14391,0.19649 0.21147,0.4179 0.20266,0.66417 -0.0112,0.31246 -0.14242,0.57695 -0.39403,0.7934 -0.25154,0.21652 -0.56476,0.31796 -0.93973,0.30463 -0.11763,-0.004 -0.22842,-0.0201 -0.33235,-0.0477 -0.10385,-0.0277 -0.23369,-0.0773 -0.38935,-0.14919 -0.0869,-0.0399 -0.15891,-0.0608 -0.21584,-0.0629 -0.0478,-0.002 -0.099,0.0149 -0.15364,0.0497 -0.0547,0.0349 -0.0998,0.0893 -0.13556,0.16357 l -0.10197,-0.004 0.0503,-1.41163 0.10197,0.004 c 0.0667,0.3999 0.21162,0.70822 0.43492,0.92504 0.22322,0.2169 0.46806,0.32994 0.73466,0.33958 0.20582,0.007 0.37173,-0.0429 0.49803,-0.15062 0.12622,-0.10785 0.19197,-0.23618 0.19731,-0.38507 0.003,-0.0882 -0.0172,-0.17457 -0.0611,-0.25884 -0.0439,-0.0844 -0.11236,-0.16553 -0.2053,-0.24333 -0.0929,-0.0779 -0.25854,-0.18082 -0.4969,-0.309 -0.33408,-0.17931 -0.57342,-0.33046 -0.71816,-0.45337 -0.1446,-0.12298 -0.25433,-0.25839 -0.32919,-0.4066 -0.0748,-0.14791 -0.10897,-0.30931 -0.1028,-0.48388 0.0106,-0.29778 0.12901,-0.54751 0.35525,-0.74919 0.22608,-0.20176 0.50556,-0.2968 0.83828,-0.2849 0.12125,0.004 0.23836,0.0233 0.35118,0.0568 0.0856,0.0251 0.18948,0.0697 0.31141,0.13383 0.12192,0.0642 0.2077,0.0971 0.25726,0.099 0.0479,0.002 0.086,-0.0117 0.1147,-0.0401 0.0285,-0.0285 0.0568,-0.0984 0.0847,-0.20959 l 0.0827,0.003"
       style="fill:#0058a6;fill-opacity:1;fill-rule:nonzero;stroke:none;stroke-width:0.00753109" />
    <path
       id="path11"
       d="m 115.66351,140.00381 -0.67765,1.0472 -0.0934,-0.0637 c 0.13202,-0.28844 0.16545,-0.5701 0.10046,-0.84491 -0.0654,-0.27488 -0.19814,-0.48063 -0.39862,-0.61747 -0.15506,-0.10574 -0.30599,-0.14806 -0.45277,-0.1269 -0.14693,0.0212 -0.25711,0.0857 -0.33084,0.19355 -0.0466,0.0683 -0.0721,0.13992 -0.0764,0.21486 -0.005,0.10159 0.0179,0.22036 0.0673,0.35652 0.0371,0.0989 0.14151,0.30019 0.31276,0.60399 0.24025,0.42446 0.36956,0.75876 0.38793,1.00269 0.0167,0.24303 -0.0442,0.46633 -0.18323,0.66989 -0.17623,0.25832 -0.42837,0.4118 -0.75665,0.4606 -0.3282,0.0487 -0.6473,-0.0325 -0.95728,-0.24393 -0.0972,-0.0664 -0.18232,-0.13895 -0.25553,-0.2178 -0.0731,-0.0788 -0.15627,-0.19016 -0.24973,-0.33392 -0.0522,-0.0801 -0.10182,-0.13632 -0.14889,-0.1684 -0.0395,-0.027 -0.0917,-0.0403 -0.15642,-0.0399 -0.0649,3e-4 -0.13209,0.0222 -0.20198,0.0659 l -0.0843,-0.0575 0.79588,-1.16671 0.0844,0.0575 c -0.15695,0.37384 -0.19905,0.71191 -0.12592,1.01444 0.073,0.30245 0.21968,0.52883 0.43997,0.67915 0.17012,0.11613 0.33731,0.16222 0.50172,0.13842 0.1641,-0.0236 0.28829,-0.0971 0.37211,-0.22013 0.0498,-0.0729 0.0787,-0.15672 0.0865,-0.25161 0.008,-0.0948 -0.007,-0.19988 -0.0436,-0.31526 -0.0371,-0.11552 -0.12223,-0.291 -0.25538,-0.52657 -0.18677,-0.32994 -0.30855,-0.58554 -0.36526,-0.76674 -0.0567,-0.18112 -0.0771,-0.35426 -0.0614,-0.51942 0.0158,-0.16508 0.0729,-0.31984 0.17133,-0.46414 0.16795,-0.24612 0.40126,-0.39418 0.70032,-0.44403 0.29891,-0.0499 0.58584,0.019 0.8608,0.20665 0.10039,0.0684 0.18926,0.14686 0.2669,0.23535 0.059,0.067 0.12284,0.16018 0.19167,0.27948 0.0688,0.11936 0.12389,0.19302 0.16493,0.22103 0.0394,0.0269 0.0789,0.036 0.11839,0.0273 0.0393,-0.009 0.10046,-0.0528 0.18346,-0.13195 l 0.0684,0.0466"
       style="fill:#0058a6;fill-opacity:1;fill-rule:nonzero;stroke:none;stroke-width:0.00753109" />
    <path
       id="path12"
       d="m 117.19194,149.56799 c -0.30606,-0.32956 -0.94153,-1.17703 -1.15353,-1.45952 -0.21178,-0.2825 -0.18828,-0.54141 -0.30592,-0.84748 -0.11771,-0.30599 -0.30613,-0.47077 -0.54148,-0.51791 -0.23542,-0.0471 -0.4002,-0.32956 -0.75334,-0.75326 -0.35305,-0.42377 -0.56498,-0.4002 -0.63554,-0.30606 -0.0707,0.0942 -0.37663,0.14128 -0.56499,0.4002 -0.18835,0.25899 -0.18835,0.72976 -0.18835,0.72976 0,0 -0.1647,0.0706 -0.32948,0.44727 -0.16486,0.37663 0.0706,0.49434 0.18827,0.54149 0.11771,0.0471 0,0.23534 0,0.51784 0,0.28249 -0.23542,0.44727 -0.23542,0.96518 0,0.51791 0.32956,0.58848 0.54149,0.75326 0.21185,0.16478 0.21185,0.47084 0.18835,0.56498 -0.0236,0.0941 -0.30614,0.32964 -0.44735,0.21185 -0.14121,-0.11771 -0.37663,-0.23542 -0.65912,-0.32956 -0.28249,-0.0941 -0.54141,0.0471 -0.75326,0.35313 -0.21192,0.30599 -0.77691,0.63563 -0.94169,1.17704 -0.1647,0.54141 -0.0235,0.89454 0,1.17703 0.0236,0.28249 -0.21177,0.44727 -0.3767,0.44727 -0.16471,0 -0.37656,-0.18835 -0.4472,-0.4002 -0.0706,-0.21192 -0.14128,-0.91811 -0.30606,-1.34181 -0.16471,-0.4237 -0.32956,-0.91804 -0.35306,-1.43596 -0.0236,-0.51791 0.0235,-0.63562 0.23542,-0.87097 0.21178,-0.23549 0.0235,-0.61205 -0.0706,-0.91811 -0.0942,-0.30607 -0.18835,-0.77683 -0.16478,-1.34182 0.0235,-0.56498 -0.11778,-1.05932 -0.16485,-1.48309 -0.0471,-0.4237 -0.72969,-0.65912 -0.91804,-0.75326 -0.18836,-0.0942 -0.37671,-0.0236 -0.47085,-0.21185 -0.0941,-0.18836 0.21185,-0.37671 0.25892,-0.56498 0.0471,-0.18836 -0.28241,-0.54149 -0.56491,-0.6827 -0.28249,-0.14128 -0.8239,-0.0471 -0.98868,0.4237 -0.16478,0.47084 0,0.75334 0.21185,0.84747 0.21185,0.0941 0.18835,0.16478 0.37663,0.259 0.18835,0.0941 -0.0941,0.18828 -0.25892,0.28241 -0.16478,0.0942 -0.1412,0.37671 -0.25892,0.37671 -0.11771,0 -0.0706,-0.23542 -0.14128,-0.32956 -0.0706,-0.0942 -0.30599,-0.18835 -0.51791,-0.18835 -0.21185,0 -0.40013,0.21185 -0.51784,0.4237 -0.11771,0.21192 -0.16478,0.49441 -0.16478,0.75333 0,0.25892 0.30599,0.18835 0.35306,0.35313 0.0471,0.16478 -0.23535,0.32956 -0.51784,0.49434 -0.28249,0.16478 -0.4237,0.25892 -0.49434,0.58848 -0.0706,0.32964 -0.0941,0.80041 -0.18835,1.15354 -0.0941,0.35306 -0.11771,0.61205 -0.21185,0.94154 -0.0941,0.32963 0.0471,0.70626 0.1412,0.8004 0.0942,0.0942 0.30607,-0.23542 0.30607,-0.56498 0,-0.32956 0.11771,-0.72976 0.25892,-0.94161 0.14121,-0.21185 0.30599,0.21185 0.28249,0.49441 -0.0236,0.28242 -0.0471,0.4237 -0.0706,0.77676 -0.0235,0.35321 0.0706,0.97701 0.0941,1.10647 0.0236,0.12946 0.0824,0.25892 0.15295,0.29424 0.0706,0.0353 0.14136,-0.27075 0.22375,-0.38838 0.0823,-0.11771 0.16478,-0.30614 0.28249,-0.42378 0.11771,-0.11771 0.10596,-0.0706 0.24717,-0.0706 0.14129,0 0.0666,-0.1333 -0.0589,-0.25892 -0.12547,-0.12561 -0.21968,-0.34515 -0.21968,-0.69052 0,-0.34523 0.3767,-0.56498 0.65919,-0.37656 0.28249,0.18828 0.34515,0.59632 0.28249,0.87873 -0.0627,0.28257 -0.25116,0.0628 -0.21983,0.34538 0.0314,0.28241 0.18835,0.0941 0.37671,0.25108 0.18827,0.15695 0.28249,0.34523 0.37663,0.62764 0.0941,0.28257 0.12562,0.53366 -0.0313,0.37671 -0.15703,-0.15695 -0.25116,-0.25109 -0.3139,-0.50217 -0.0627,-0.25109 -0.25108,0.0941 -0.18828,0.31389 0.0627,0.21961 0.12547,0.47077 0.18828,0.69053 0.0628,0.21983 0.0627,0.47084 0.0627,0.72185 0,0.25109 0.0941,0.37671 0.21975,0.59647 0.12562,0.21975 0.0314,0.47076 -0.28249,0.37663 -0.31382,-0.0941 -0.18828,-0.40811 -0.18828,-0.53366 0,-0.12547 -0.12561,-0.5649 -0.3453,-0.72193 -0.21968,-0.15695 -0.31389,0.0628 -0.3453,0.3453 -0.0315,0.28249 -0.0627,0.72193 -0.31389,0.69053 -0.25109,-0.0315 -0.40796,0.0941 -0.75326,0.0628 -0.3453,-0.0314 -0.37663,-0.40804 -0.59631,-0.62779 -0.21969,-0.21976 -0.50225,-0.0627 -0.50225,-0.25102 0,-0.18835 0.0628,-0.59646 0.0628,-1.09863 0,-0.50217 0,-0.56498 -0.3139,-0.78467 -0.31382,-0.21968 -0.43944,-0.53357 -0.81607,-0.91028 -0.37663,-0.37663 -0.56498,-0.18828 -0.94168,-0.0628 -0.37663,0.12555 -0.59632,0.37671 -0.59632,0.37671 l -0.25108,-0.28257 c -0.25116,-0.28241 0.0628,-0.47077 0.28249,-0.65912 0.21968,-0.18828 0.5335,-0.65912 0.47069,-1.00427 -0.0627,-0.34523 -0.15687,-0.94169 -0.15687,-1.06731 0,-0.12562 0.18828,-0.15687 0.12554,-0.47076 -0.0627,-0.31398 -0.31389,-0.50218 -0.31389,-0.50218 0,0 -0.0313,-0.18835 -0.12547,-0.50217 -0.0942,-0.31382 -0.43952,-0.65912 -0.43952,-0.65912 l -0.37663,-0.15703 c 0,0 -0.470764,0.47085 -0.596308,0.6278 -0.125543,0.15702 -0.424527,0.33234 -0.730214,0.46338 -0.305762,0.13105 -0.393123,0.48041 -0.480559,0.82993 -0.08728,0.34937 -0.262082,0.34937 -0.69881,0.96089 -0.436728,0.61153 -0.873531,1.13562 -1.091933,1.52881 -0.218401,0.39305 0.04368,0.65506 0.08736,0.96074 0.04368,0.30584 0.394027,0.28611 0.348238,0.68624 -0.0357,0.31186 0,2.09507 0.02357,2.68363 0.0235,0.58848 0.447271,1.08282 0.800329,1.36531 0.353133,0.28241 1.129965,0.63562 1.694947,0.98868 0.56499,0.35321 1.64781,1.10647 2.00086,1.4831 0.35321,0.3767 0.58863,0.61205 0.6357,0.8239 0.0471,0.21192 0.0234,0.56498 0.0234,0.94161 0,0.37671 0.58863,0.40028 0.96526,0.49442 0.37663,0.0941 0.44728,0.23542 0.80041,0.28249 0.35313,0.0471 1.67137,0.0941 2.0715,0.0471 0.4002,-0.0471 0.56498,-0.4237 0.70627,-0.77684 0.1412,-0.35313 0.32956,-0.3767 0.44727,-0.14128 0.11771,0.23542 0.21185,0.32956 0.37655,0.63563 0.16478,0.30598 0.61213,0.28249 0.89462,0.35313 0.28249,0.0706 1.01218,-0.0472 1.45952,-0.0706 0.44728,-0.0236 0.75326,-0.18828 1.41246,-0.58856 0.65912,-0.40012 0.56498,-0.65912 0.58848,-1.10639 0.0236,-0.44727 0.11779,-0.58856 0.28249,-0.68269 0.16478,-0.0941 0.80033,-0.82391 1.29475,-1.15347 0.49434,-0.32956 1.29467,-0.65912 2.00101,-1.08289 0.70619,-0.4237 0.96503,-0.68269 1.0121,-0.98868 0.0471,-0.30607 0.16493,-0.4002 0.35321,-0.56498 0.18828,-0.16471 0.11756,-0.4472 0.18828,-1.12997 0.0706,-0.68262 -0.0941,-1.36531 0.0471,-1.74202 0.14136,-0.37663 0.18843,-0.70619 0.40021,-1.01217 0.21185,-0.30607 -0.0941,-0.84748 -0.40021,-1.17704"
       style="fill:#0058a6;fill-opacity:1;fill-rule:nonzero;stroke:none;stroke-width:0.00753109" />
    <path
       id="path13"
       d="m 105.74175,151.5614 c -0.0397,-0.11937 -0.10604,0.14587 -0.15906,0.23866 -0.0531,0.0928 -0.0795,0.23858 -0.13254,0.35787 -0.0529,0.1193 -0.14581,0.11937 -0.22533,0.27843 -0.0795,0.15905 -0.0265,0.34462 0,0.47717 0.0264,0.13254 0.059,0.41918 0.0132,0.54352 -0.0928,0.25184 0.0397,0.35787 0.11922,0.33129 0.0795,-0.0266 0.10611,-0.11922 0.11937,-0.29153 0.0132,-0.17239 -0.0133,-0.30501 0.0397,-0.43748 0.053,-0.13247 0.13262,-0.18557 0.19889,-0.25184 0.0663,-0.0663 0.0133,-0.23859 0,-0.41097 -0.0132,-0.17231 0.0796,-0.33145 0.0928,-0.46399 0.0133,-0.1324 -0.0265,-0.25177 -0.0663,-0.37113"
       style="fill:#0058a6;fill-opacity:1;fill-rule:nonzero;stroke:none;stroke-width:0.00753109" />
    <path
       id="path14"
       d="m 102.10243,151.42764 c -0.18828,-0.0941 -0.32956,-0.0941 -0.65912,0 -0.32949,0.0942 -0.28242,0.259 -0.30599,0.47085 -0.0235,0.21192 0,0.28249 0.11771,0.51783 0.11763,0.2355 0.24288,-0.0451 0.51784,0.0236 0.0941,0.0236 0.28249,-0.0236 0.44727,0 0.16478,0.0236 0.14121,-0.25892 0.14121,-0.54141 0,-0.28249 -0.0707,-0.37663 -0.25892,-0.47085"
       style="fill:#ffffff;fill-opacity:1;fill-rule:nonzero;stroke:none;stroke-width:0.00753109" />
    <path
       id="path15"
       d="m 99.724862,146.90786 c 0.16478,0.0236 0.305988,-0.11771 0.353058,-0.25892 0.0471,-0.14121 0.25899,-0.4237 0.4002,-0.54141 0.14128,-0.11771 -0.18835,-0.18835 -0.32956,0.0235 -0.14121,0.21192 -0.429422,0.34643 -0.541409,0.44727 -0.235422,0.21185 -0.04707,0.30599 0.117711,0.32956"
       style="fill:#ffffff;fill-opacity:1;fill-rule:nonzero;stroke:none;stroke-width:0.00753109" />
    <path
       id="path16"
       d="m 100.54876,147.94369 c -0.11771,0.23534 -0.25892,0.32956 -0.21185,0.44727 0.0471,0.11763 0.0941,0.21185 0.21185,0.0235 0.11771,-0.18835 0.61205,-0.70619 0.6827,-0.87097 0.0706,-0.16478 -0.18836,-0.32956 -0.35314,-0.0706 -0.16478,0.259 -0.24732,0.30637 -0.32956,0.47085"
       style="fill:#ffffff;fill-opacity:1;fill-rule:nonzero;stroke:none;stroke-width:0.00753109" />
    <path
       id="path17"
       d="m 99.065741,155.85329 c -0.353058,-0.259 -0.776832,-0.77683 -1.082821,-1.05932 -0.306063,-0.28242 -0.235421,-0.89447 -0.211924,-1.53017 0.02357,-0.63547 0.02357,-1.76544 -0.04707,-2.21279 -0.07064,-0.44727 -0.258919,-0.65912 -0.09414,-1.05932 0.16478,-0.40028 0.305988,-0.58855 0.353132,-0.8474 0.04707,-0.25899 -0.04714,-0.28249 -0.282491,0.0941 -0.235422,0.37663 -0.258994,0.4237 -0.447271,0.58848 -0.188353,0.16478 -0.282491,0.23535 -0.400202,0.4237 -0.117711,0.18835 0.04707,0.47084 0.188277,0.6592 0.141283,0.18827 0.282491,0.28241 0.282491,0.65912 v 2.23635 c 0,0.44728 0.07064,0.6592 0.141283,0.77684 0.07064,0.11771 0.250484,0.60068 0.58848,0.87097 0.117711,0.0941 0.659196,0.44727 1.153462,0.75333 0.49434,0.30606 0.211849,-0.0943 -0.141208,-0.35313"
       style="fill:#ffffff;fill-opacity:1;fill-rule:nonzero;stroke:none;stroke-width:0.00753109" />
    <path
       id="path18"
       d="m 101.16081,149.61506 c 0.23543,-0.21192 0.14121,-0.68269 0.0707,-1.03575 -0.0707,-0.35313 -0.16478,-0.35313 -0.35314,-0.14128 -0.18827,0.21185 -0.21185,0.18835 -0.40012,0.35313 -0.18836,0.16478 -0.21193,0.32964 -0.21193,0.63555 0,0.30606 -0.14121,0.32963 -0.329559,0.56498 -0.188277,0.23542 -0.204695,0.5686 -0.0235,0.65912 0.141209,0.0706 0.211849,0.49434 0.211849,0.75334 0,0.25892 -0.141283,0.8004 -0.0941,0.98868 0.0471,0.18835 0.30598,0.0471 0.28249,-0.18828 -0.0236,-0.23542 0.0706,-0.89454 0.0941,-1.03583 0.0235,-0.1412 0.32957,-0.0706 0.32957,-0.0706 0,0 -0.0236,-0.23542 -0.14121,-0.37663 -0.11771,-0.14128 -0.14129,-0.40012 0,-0.51791 0.14121,-0.11771 0.32956,-0.37663 0.5649,-0.58848"
       style="fill:#ffffff;fill-opacity:1;fill-rule:nonzero;stroke:none;stroke-width:0.00753109" />
    <path
       id="path19"
       d="m 102.57327,151.99263 c -0.0236,0.32956 -0.0236,0.70626 -0.14121,0.70626 -0.11771,0 -0.42377,0.0471 -0.54148,0.0236 -0.1861,-0.0373 -0.44727,0.0706 -0.54141,0.0941 -0.0941,0.0235 -0.32956,-0.0706 -0.32956,-0.18827 0,-0.11779 -0.0236,-0.25907 -0.0471,-0.54149 -0.0236,-0.28257 -0.16478,-0.4002 0.0706,-0.58848 0.23535,-0.18835 0.49434,-0.3767 0.75326,-0.30614 0.25899,0.0706 0.37663,0 0.61205,0.21193 0.23542,0.21185 0.18835,0.25892 0.16478,0.58848 m 3.88424,5.13191 c -0.37671,-0.30607 -0.70627,-0.72984 -0.96519,-0.94169 -0.25899,-0.21185 -0.37663,-0.4237 -0.61205,-0.91812 -0.23542,-0.49426 -0.82398,-0.96511 -1.17703,-1.20053 -0.19589,-0.13051 -0.35314,-0.1647 -0.47085,-0.47077 -0.11771,-0.30598 0,-0.58855 0,-0.91804 0,-0.32971 0.16478,-0.56505 -0.14121,-0.91819 -0.30606,-0.35305 -0.54148,-0.28241 -0.61205,-0.47084 -0.0706,-0.18828 -0.23542,-0.4237 -0.51791,-0.4237 -0.28249,0 -0.61205,0.0942 -0.8239,0.259 -0.21185,0.1647 -0.44727,0.25891 -0.44727,0.58847 0,0.32964 0.0235,0.87098 0.0471,1.0829 0.0236,0.21185 0.0236,0.44727 0.32956,0.75326 0.30606,0.30614 0.61205,0.6357 0.8239,1.0594 0.21192,0.4237 0.3767,0.70611 0.75333,1.05932 0.37663,0.35306 0.63555,0.54141 0.94161,0.61205 0.30599,0.0706 0.21185,0.51792 -0.0471,0.37663 -0.25899,-0.14121 -0.58855,-0.37663 -0.87104,-0.58855 -0.28242,-0.21185 -0.61198,-0.47085 -0.72969,-0.77683 -0.11771,-0.30607 -0.35313,-0.56499 -0.58855,-0.94162 -0.23542,-0.37663 -0.63563,-0.84747 -0.8239,-1.03575 -0.18836,-0.18835 -0.42378,-0.51791 -0.51792,-0.65912 -0.09414,-0.14128 -0.258916,-0.16485 -0.306061,-0.42377 -0.04707,-0.259 0.164856,-0.44727 0.164856,-0.75326 0,-0.30607 -0.164856,-0.61213 -0.258994,-0.77691 -0.09414,-0.16478 -0.164781,-0.44727 -0.0235,-0.61205 0.141208,-0.16478 0.423699,-0.37656 0.423699,-0.70619 0,-0.32956 -0.07064,-0.54141 -0.02357,-0.84747 0.04715,-0.30607 0.164863,-0.56499 0.376713,-0.82391 0.21185,-0.25899 0.49434,-0.44727 0.54141,-0.63562 0.0471,-0.18835 -0.0471,-0.35313 -0.11772,-0.61205 -0.0706,-0.25892 -0.18827,-0.23542 -0.30598,-0.0706 -0.11771,0.16478 -0.23543,0.49434 -0.37671,0.65912 -0.14121,0.16485 -0.376631,0.0942 -0.564984,0.0471 -0.188277,-0.0471 -0.564982,-0.21192 -0.70619,0.0706 -0.141208,0.28249 -0.164781,0.54148 -0.306064,0.77691 -0.141208,0.23534 -0.141208,0.72976 -0.235346,1.05932 -0.09421,0.32956 -0.211925,0.4237 -0.329636,0.84747 -0.117636,0.4237 0,0.70619 0.07064,1.17704 0.07064,0.47084 0.07064,1.03575 0.02357,1.69494 -0.04707,0.65912 -0.329561,1.03575 0.141208,1.48303 0.470843,0.44727 0.823976,0.80032 1.318317,1.2476 0.494335,0.44727 1.082895,1.2006 1.671375,1.64787 0.58855,0.44728 0.96518,0.96519 1.2241,1.1064 0.25892,0.1412 0.35306,0.28241 0.35306,0.70626 0,0.4237 0.0706,0.8239 0.63562,1.10639 0.56498,0.2825 1.46743,0.36089 1.96178,0.36089 0.49441,0 0.76116,0.0315 0.97301,-0.25101 0.21185,-0.28249 0.47085,-0.97309 0.59631,-1.5929 0.10762,-0.53117 -0.0941,-1.10647 -0.47076,-1.41245"
       style="fill:#ffffff;fill-opacity:1;fill-rule:nonzero;stroke:none;stroke-width:0.00753109" />
    <path
       id="path20"
       d="m 112.00543,152.47138 c 0.16478,-0.0236 0.35306,0.0236 0.4472,0 0.27504,-0.0688 0.40028,0.21185 0.51791,-0.0236 0.11771,-0.23534 0.14129,-0.30598 0.11771,-0.51791 -0.0236,-0.21177 0.0236,-0.37663 -0.30598,-0.47077 -0.32964,-0.0942 -0.47085,-0.0942 -0.65913,0 -0.18835,0.0941 -0.25899,0.18836 -0.25899,0.47077 0,0.28257 -0.0235,0.56506 0.14128,0.54149"
       style="fill:#ffffff;fill-opacity:1;fill-rule:nonzero;stroke:none;stroke-width:0.00753109" />
    <path
       id="path21"
       d="m 114.14758,146.68042 c 0.0471,0.14121 0.18835,0.28249 0.35313,0.25892 0.16478,-0.0236 0.35313,-0.11771 0.11771,-0.32956 -0.11199,-0.10084 -0.40028,-0.23535 -0.54156,-0.44727 -0.14121,-0.21185 -0.47077,-0.14121 -0.32949,-0.0235 0.14121,0.11771 0.35314,0.4002 0.40021,0.54141"
       style="fill:#ffffff;fill-opacity:1;fill-rule:nonzero;stroke:none;stroke-width:0.00753109" />
    <path
       id="path22"
       d="m 113.67681,148.44593 c 0.11763,0.18828 0.1647,0.0941 0.21177,-0.0236 0.0471,-0.11763 -0.0941,-0.21185 -0.21177,-0.44719 -0.0822,-0.16448 -0.16486,-0.21193 -0.32956,-0.47085 -0.16486,-0.25892 -0.42378,-0.0941 -0.35314,0.0706 0.0706,0.16478 0.56491,0.6827 0.6827,0.87097"
       style="fill:#ffffff;fill-opacity:1;fill-rule:nonzero;stroke:none;stroke-width:0.00753109" />
    <path
       id="path23"
       d="m 117.37269,150.28209 c -0.11771,-0.18835 -0.21192,-0.25892 -0.4002,-0.4237 -0.18828,-0.16478 -0.21185,-0.21192 -0.44735,-0.58848 -0.23534,-0.3767 -0.32948,-0.35321 -0.28241,-0.0942 0.0471,0.25892 0.18827,0.44719 0.35305,0.84747 0.16486,0.40013 -0.0236,0.61198 -0.0941,1.05932 -0.0706,0.44727 -0.0706,1.57724 -0.0471,2.21279 0.0235,0.63562 0.0941,1.24767 -0.21185,1.53009 -0.30607,0.28249 -0.72969,0.8004 -1.0829,1.0594 -0.35313,0.25892 -0.63555,0.65912 -0.14121,0.35306 0.49442,-0.30599 1.03568,-0.65913 1.15354,-0.75326 0.33784,-0.27029 0.51791,-0.75334 0.58848,-0.87097 0.0706,-0.11772 0.14121,-0.32964 0.14121,-0.77684 v -2.23635 c 0,-0.37671 0.1412,-0.47085 0.28241,-0.6592 0.14136,-0.18835 0.30614,-0.47077 0.18843,-0.65912"
       style="fill:#ffffff;fill-opacity:1;fill-rule:nonzero;stroke:none;stroke-width:0.00753109" />
    <path
       id="path24"
       d="m 113.62966,150.23494 c 0.14129,0.11779 0.11771,0.37671 0,0.51792 -0.11771,0.14128 -0.1412,0.3767 -0.1412,0.3767 0,0 0.30598,-0.0706 0.32963,0.0706 0.0235,0.14121 0.11764,0.80033 0.0941,1.03583 -0.0236,0.23535 0.23535,0.37663 0.28242,0.18828 0.0471,-0.18828 -0.0941,-0.72976 -0.0941,-0.98876 0,-0.25892 0.0706,-0.68269 0.21185,-0.75326 0.1812,-0.0906 0.16485,-0.4237 -0.0235,-0.65912 -0.18835,-0.23535 -0.32956,-0.25899 -0.32956,-0.56491 0,-0.30614 -0.0236,-0.47092 -0.21193,-0.6357 -0.18835,-0.16478 -0.21184,-0.1412 -0.40012,-0.35313 -0.18835,-0.21177 -0.28257,-0.21177 -0.35314,0.14128 -0.0706,0.35306 -0.16478,0.82391 0.0706,1.03583 0.2355,0.21185 0.42378,0.47077 0.56498,0.5884"
       style="fill:#ffffff;fill-opacity:1;fill-rule:nonzero;stroke:none;stroke-width:0.00753109" />
    <path
       id="path25"
       d="m 111.81708,151.43555 c 0.23542,-0.21185 0.35313,-0.14121 0.61205,-0.21185 0.259,-0.0706 0.51792,0.11771 0.75326,0.30606 0.23542,0.18836 0.0942,0.30599 0.0707,0.58848 -0.0236,0.2825 -0.0472,0.4237 -0.0472,0.54149 0,0.11771 -0.23542,0.21185 -0.32956,0.18835 -0.0941,-0.0236 -0.35531,-0.13142 -0.54141,-0.0942 -0.11771,0.0236 -0.42377,-0.0236 -0.54148,-0.0236 -0.11764,0 -0.11764,-0.37663 -0.14121,-0.70619 -0.0235,-0.32956 -0.0706,-0.37663 0.16478,-0.58856 m 4.35508,1.31832 c -0.0471,-0.65912 -0.0471,-1.22411 0.0235,-1.69487 0.0706,-0.47085 0.18827,-0.75334 0.0706,-1.17704 -0.11771,-0.42377 -0.2355,-0.51791 -0.32964,-0.84747 -0.0941,-0.32956 -0.0941,-0.82398 -0.23534,-1.05932 -0.14121,-0.23543 -0.16478,-0.49442 -0.30614,-0.77691 -0.14121,-0.28249 -0.51784,-0.11764 -0.70619,-0.0706 -0.18828,0.0471 -0.4237,0.11771 -0.56499,-0.0471 -0.1412,-0.16485 -0.25884,-0.49441 -0.37663,-0.65919 -0.11771,-0.16478 -0.23542,-0.18828 -0.30598,0.0706 -0.0707,0.25892 -0.16478,0.4237 -0.11771,0.61205 0.0471,0.18835 0.32948,0.37663 0.54148,0.63562 0.21178,0.25892 0.32949,0.51792 0.37656,0.82391 0.0471,0.30606 -0.0236,0.51783 -0.0236,0.84747 0,0.32956 0.28257,0.54141 0.42378,0.70619 0.14121,0.16478 0.0706,0.44727 -0.0235,0.61205 -0.0941,0.16486 -0.25899,0.47084 -0.25899,0.77683 0,0.30607 0.21192,0.49434 0.16485,0.75334 -0.0471,0.25892 -0.21192,0.28241 -0.30614,0.4237 -0.0941,0.14128 -0.32948,0.47077 -0.51783,0.65912 -0.18836,0.18835 -0.58848,0.65919 -0.82391,1.03582 -0.23534,0.37663 -0.47084,0.63555 -0.58848,0.94162 -0.11771,0.30598 -0.44734,0.56498 -0.72976,0.77683 -0.28256,0.21185 -0.61205,0.44727 -0.87104,0.58855 -0.25892,0.14121 -0.35306,-0.30606 -0.0471,-0.3767 0.30606,-0.0706 0.56498,-0.259 0.94168,-0.61205 0.37663,-0.35314 0.54141,-0.63563 0.75326,-1.05933 0.21185,-0.4237 0.51792,-0.75326 0.82391,-1.05932 0.30598,-0.30599 0.30598,-0.54141 0.32956,-0.75326 0.0235,-0.21185 0.0471,-0.75333 0.0471,-1.0829 0,-0.32963 -0.23535,-0.42377 -0.44728,-0.58847 -0.21185,-0.16479 -0.54141,-0.25892 -0.8239,-0.25892 -0.28256,0 -0.44727,0.23534 -0.51791,0.42362 -0.0706,0.18835 -0.30599,0.11771 -0.61205,0.47084 -0.30599,0.35314 -0.14121,0.58856 -0.14121,0.91812 0,0.32956 0.11771,0.61205 0,0.91804 -0.11771,0.30606 -0.27496,0.34025 -0.47084,0.47084 -0.35306,0.23542 -0.94162,0.70619 -1.17704,1.20053 -0.23542,0.49442 -0.35313,0.70619 -0.61205,0.91812 -0.25892,0.21185 -0.58848,0.63562 -0.96526,0.94161 -0.37655,0.30606 -0.60347,0.88701 -0.47077,1.41246 0.16463,0.65121 0.36074,1.31033 0.57259,1.59282 0.212,0.28249 0.60452,0.12562 1.09879,0.12562 0.49441,0 1.29482,0.0471 1.8598,-0.23542 0.56498,-0.28249 0.63562,-0.68262 0.63562,-1.10639 0,-0.4237 0.0941,-0.56499 0.35306,-0.70619 0.259,-0.14121 0.63555,-0.65912 1.2241,-1.1064 0.58848,-0.44727 1.17696,-1.2006 1.67138,-1.64787 0.49434,-0.44728 0.84755,-0.80041 1.31824,-1.24768 0.47084,-0.4472 0.18843,-0.82383 0.14136,-1.48302"
       style="fill:#ffffff;fill-opacity:1;fill-rule:nonzero;stroke:none;stroke-width:0.00753109" />
    <path
       id="path26"
       d="m 107.54703,154.47856 c 0.13292,0.0333 0.36533,0 0.36533,-0.0831 0,-0.083 0.0831,-0.18263 -0.083,-0.24906 -0.16614,-0.0664 -0.2492,0.0166 -0.2492,-0.21591 v -0.5314 c 0,-0.23263 0.0167,-0.41534 -0.11621,-0.44847 -0.13285,-0.0332 -0.18255,-0.0165 -0.14942,0.16613 0.0447,0.24567 -0.0166,0.48161 -0.0664,0.58125 -0.0499,0.0996 -0.0333,0.46505 0,0.58125 0.0332,0.11621 0.16598,0.16606 0.29891,0.19927"
       style="fill:#ffffff;fill-opacity:1;fill-rule:nonzero;stroke:none;stroke-width:0.00753109" />
    <path
       id="path27"
       d="m 107.39761,151.87122 c 0.0664,0.2657 0.0166,0.28227 0.23249,0.58118 0.21591,0.29898 0.24912,0.59782 0.29891,0.79724 0.0562,0.22443 0.14956,0.43168 0.26577,0.54804 0.1162,0.11628 0.16621,0.38205 0.21591,0.41526 0.0497,0.0331 0.18263,-0.11635 0.28227,-0.11635 0.0997,0 0.21576,-0.13285 0.14949,-0.24913 -0.0663,-0.11621 -0.11613,-0.14949 -0.21584,-0.21584 -0.0997,-0.0664 -0.16621,-0.3819 -0.23256,-0.5979 -0.0664,-0.21584 -0.1827,-0.58117 -0.21592,-0.81373 -0.0332,-0.23256 -0.1827,-0.48176 -0.21591,-0.74739 -0.0332,-0.26569 -0.0663,-0.46497 0.0665,-0.61446 0.13285,-0.14957 0.41511,-0.31555 0.43168,-0.54804 0.0166,-0.23256 -0.0497,-0.29898 -0.0996,-0.5149 -0.0499,-0.21599 -0.18271,-0.51482 -0.26577,-0.68088 -0.083,-0.16614 -0.16606,-0.2657 -0.21585,-0.28234 -0.0499,-0.0166 -0.21606,0.0499 -0.26577,-0.083 -0.0498,-0.13293 0.0166,-0.18271 0.0996,-0.3322 0.0831,-0.14949 0,-0.28234 -0.083,-0.5149 -0.0831,-0.23249 -0.31563,-0.31555 -0.48169,-0.2657 -0.16606,0.0499 -0.44848,0.43183 -0.38198,0.63111 0.0665,0.19927 0.21592,0.34876 0.31563,0.43175 0.0996,0.0831 0.11628,0.0997 0.0996,0.18278 -0.0167,0.083 -0.0333,-0.0499 -0.19935,0.13278 -0.16606,0.1827 -0.21592,0.31562 -0.24913,0.53147 -0.0332,0.21591 -0.0166,0.4484 -0.083,0.61446 -0.0664,0.16606 7e-5,0.5646 -0.0166,0.68088 -0.0167,0.11636 -0.133,0.133 0.0166,0.19943 0.14949,0.0663 0.33212,-0.1995 0.34876,-0.33228 0.0166,-0.13277 -0.11613,-0.16606 0.0166,-0.33212 0.13278,-0.16606 0.24913,0.11628 0.28227,0.18271 0.0332,0.0663 -0.0831,0.36541 -0.0996,0.56468 -0.0166,0.19935 0.133,0.48161 0.19935,0.74738"
       style="fill:#ffffff;fill-opacity:1;fill-rule:nonzero;stroke:none;stroke-width:0.00753109" />
  </g>
</svg>
