<?xml version="1.0" encoding="UTF-8" standalone="no"?>
<!-- Created with Inkscape (http://www.inkscape.org/) -->

<svg
   width="36mm"
   height="36mm"
   viewBox="0 0 36 36"
   version="1.1"
   id="svg1"
   inkscape:version="1.4 (e7c3feb100, 2024-10-09)"
   sodipodi:docname="css-logo-transparente.svg"
   inkscape:export-filename="Descargas/favicon/apple-touch-icon.png"
   inkscape:export-xdpi="127"
   inkscape:export-ydpi="127"
   xmlns:inkscape="http://www.inkscape.org/namespaces/inkscape"
   xmlns:sodipodi="http://sodipodi.sourceforge.net/DTD/sodipodi-0.dtd"
   xmlns="http://www.w3.org/2000/svg"
   xmlns:svg="http://www.w3.org/2000/svg">
  <sodipodi:namedview
     id="namedview1"
     pagecolor="#ffffff"
     bordercolor="#000000"
     borderopacity="0.25"
     inkscape:showpageshadow="2"
     inkscape:pageopacity="0.0"
     inkscape:pagecheckerboard="0"
     inkscape:deskcolor="#d1d1d1"
     inkscape:document-units="mm"
     inkscape:zoom="2.7868022"
     inkscape:cx="36.062839"
     inkscape:cy="71.587427"
     inkscape:window-width="1231"
     inkscape:window-height="754"
     inkscape:window-x="0"
     inkscape:window-y="0"
     inkscape:window-maximized="1"
     inkscape:current-layer="layer1" />
  <defs
     id="defs1" />
  <g
     inkscape:label="Capa 1"
     inkscape:groupmode="layer"
     id="layer1"
     transform="translate(-89.164582,-132.55624)">
    <path
       id="path2-1"
       d="m 107.1646,165.47169 c -8.237356,0 -14.9154,-6.67766 -14.9154,-14.91517 0,-8.23773 6.678044,-14.91555 14.9154,-14.91555 8.23751,0 14.91532,6.67782 14.91532,14.91555 0,8.23751 -6.67781,14.91517 -14.91532,14.91517 m 0,-30.91542 c -8.83653,0 -16.000027,7.16342 -16.000027,16.00003 0,8.83675 7.163497,16.00002 16.000027,16.00002 8.83638,0 15.99995,-7.16327 15.99995,-16.00002 0,-8.83661 -7.16357,-16.00003 -15.99995,-16.00003"
       style="fill:#1a1a1a;fill-opacity:1;fill-rule:evenodd;stroke:none;stroke-width:0.00753109" />
    <path
       id="path3-5"
       d="m 100.3699,160.3303 -0.576731,0.84687 c 0.03058,0.0236 0.054,0.0409 0.07034,0.052 0.117485,0.08 0.231811,0.10686 0.343041,0.0803 0.11116,-0.0264 0.21652,-0.11304 0.31631,-0.25937 0.099,-0.1455 0.13977,-0.27361 0.12207,-0.38447 -0.0176,-0.11063 -0.0895,-0.20906 -0.21576,-0.29499 z m -0.653398,0.95953 -0.370153,0.54329 c -0.07207,0.10604 -0.111084,0.17714 -0.116807,0.21344 -0.0056,0.0364 0.0026,0.0741 0.0247,0.11304 0.02207,0.0391 0.07742,0.0887 0.16606,0.14911 l -0.03645,0.0535 -0.995686,-0.67802 0.03645,-0.0536 c 0.0906,0.0617 0.157701,0.0951 0.201457,0.10024 0.04376,0.005 0.08126,-0.001 0.11274,-0.0195 0.03133,-0.0182 0.08314,-0.0802 0.155291,-0.18625 l 0.866075,-1.27162 c 0.07215,-0.10596 0.111084,-0.17713 0.116808,-0.21336 0.0056,-0.0363 -0.0023,-0.0739 -0.02387,-0.11251 -0.02161,-0.0387 -0.07727,-0.0886 -0.166814,-0.14957 l 0.03645,-0.0536 0.853947,0.58178 c 0.28129,0.19152 0.44901,0.37912 0.50323,0.56257 0.0541,0.18354 0.03,0.35043 -0.0724,0.50067 -0.0867,0.12713 -0.20025,0.20921 -0.34101,0.24597 -0.14061,0.0368 -0.29145,0.0242 -0.45247,-0.0374 -0.10927,-0.0406 -0.275034,-0.13662 -0.497578,-0.28822"
       style="fill:#1a1a1a;fill-opacity:1;fill-rule:nonzero;stroke:none;stroke-width:0.00753109" />
    <path
       id="path4-9"
       d="m 102.09264,162.89056 -0.006,-0.88957 -0.65362,0.60979 z m 0.004,0.14234 -0.7711,-0.32692 -0.18188,0.17366 c -0.06,0.0581 -0.0998,0.11026 -0.11944,0.15643 -0.0258,0.0611 -0.0203,0.11665 0.0168,0.16651 0.0217,0.0294 0.0877,0.0727 0.19784,0.12938 l -0.0253,0.0596 -0.726,-0.30764 0.0252,-0.0596 c 0.0834,0.0214 0.16155,0.0162 0.23452,-0.0156 0.0729,-0.0317 0.18165,-0.11508 0.32625,-0.25003 l 1.51902,-1.4108 0.0304,0.013 0.0285,2.12354 c 0.003,0.20145 0.0197,0.33438 0.0493,0.39884 0.0224,0.0487 0.0657,0.0899 0.13006,0.12351 l -0.0253,0.0595 -1.05601,-0.44757 0.0253,-0.0596 0.0434,0.0184 c 0.0847,0.036 0.14934,0.0494 0.19377,0.0404 0.0308,-0.007 0.0532,-0.0268 0.0666,-0.059 0.008,-0.0194 0.0136,-0.0405 0.0157,-0.0636 0.002,-0.0106 0.003,-0.0577 0.003,-0.14128 l -5.3e-4,-0.32113"
       style="fill:#1a1a1a;fill-opacity:1;fill-rule:nonzero;stroke:none;stroke-width:0.00753109" />
    <path
       id="path5-8"
       d="m 104.81505,162.0946 0.91164,1.64276 0.16772,-1.00525 c 0.0235,-0.1403 0.0191,-0.23843 -0.0129,-0.29462 -0.0441,-0.0758 -0.13119,-0.12351 -0.26156,-0.14294 l 0.0108,-0.0637 0.77254,0.12886 -0.0106,0.0638 c -0.10099,-0.004 -0.17012,0.002 -0.2074,0.016 -0.0373,0.0144 -0.0692,0.0427 -0.0957,0.085 -0.0266,0.0422 -0.049,0.11854 -0.0675,0.22887 l -0.32497,1.94702 -0.0586,-0.01 -1.25649,-2.21096 -0.24807,1.48656 c -0.0224,0.13451 -0.007,0.23045 0.0468,0.28784 0.0536,0.0574 0.12005,0.0927 0.19942,0.10596 l 0.0551,0.009 -0.0106,0.0638 -0.82947,-0.13835 0.0107,-0.0639 c 0.12894,0.0203 0.223,0.009 0.28219,-0.0345 0.0593,-0.0432 0.0993,-0.12698 0.1199,-0.25109 l 0.27549,-1.65036 -0.0395,-0.0704 c -0.0392,-0.0703 -0.076,-0.11846 -0.11078,-0.14437 -0.0346,-0.0258 -0.0874,-0.0459 -0.15831,-0.06 l 0.0106,-0.0639 0.82955,0.13842"
       style="fill:#1a1a1a;fill-opacity:1;fill-rule:nonzero;stroke:none;stroke-width:0.00753109" />
    <path
       id="path6-4"
       d="m 108.19613,163.84995 -0.4063,-0.79137 -0.30892,0.83867 z m 0.0679,0.12517 -0.83557,0.0554 -0.0843,0.23685 c -0.0276,0.0788 -0.0395,0.1434 -0.0362,0.1934 0.004,0.0663 0.0343,0.11327 0.0898,0.14113 0.0327,0.0166 0.11101,0.0254 0.23489,0.0265 l 0.004,0.0646 -0.78684,0.052 -0.004,-0.0645 c 0.0842,-0.0184 0.15167,-0.0582 0.20243,-0.11938 0.0509,-0.0613 0.11049,-0.18451 0.17872,-0.37023 l 0.72132,-1.94355 0.0331,-0.002 0.98137,1.88353 c 0.0937,0.17841 0.16817,0.28957 0.22375,0.33385 0.0419,0.0335 0.0991,0.0507 0.17148,0.0517 l 0.004,0.0645 -1.1445,0.0757 -0.004,-0.0645 0.0471,-0.003 c 0.092,-0.006 0.1556,-0.0231 0.19107,-0.0512 0.0244,-0.0203 0.0355,-0.048 0.0331,-0.0828 -0.001,-0.0209 -0.006,-0.0422 -0.0148,-0.0639 -0.003,-0.0103 -0.0233,-0.0527 -0.061,-0.12743 l -0.14505,-0.28648"
       style="fill:#1a1a1a;fill-opacity:1;fill-rule:nonzero;stroke:none;stroke-width:0.00753109" />
    <path
       id="path7"
       d="m 111.52819,163.15453 0.0987,-1.68734 0.91231,-0.31473 0.0212,0.0613 -0.0728,0.0251 c -0.0661,0.0227 -0.115,0.0525 -0.14663,0.0893 -0.0222,0.025 -0.0353,0.0585 -0.0393,0.10047 -0.003,0.0307 0.0147,0.10167 0.0529,0.2129 l 0.5097,1.4776 c 0.0395,0.11463 0.0703,0.18421 0.0923,0.20869 0.022,0.0245 0.0554,0.0409 0.10031,0.0495 0.0448,0.009 0.0987,0.002 0.16147,-0.0197 l 0.0728,-0.0251 0.0211,0.0612 -1.17033,0.40359 -0.021,-0.0611 0.0727,-0.0251 c 0.0661,-0.0228 0.11508,-0.0526 0.14671,-0.0894 0.0222,-0.0249 0.0352,-0.059 0.0388,-0.10212 0.003,-0.0307 -0.015,-0.1022 -0.0537,-0.21456 l -0.57281,-1.66106 -0.15439,2.34089 -0.0397,0.0137 -1.57271,-1.72869 0.54442,1.57844 c 0.0379,0.11018 0.0641,0.17713 0.0784,0.20041 0.0332,0.0502 0.0798,0.0843 0.13985,0.10257 0.0598,0.0181 0.14106,0.01 0.24363,-0.0258 l 0.021,0.0612 -0.76696,0.26449 -0.021,-0.0612 0.0231,-0.008 c 0.05,-0.016 0.0935,-0.0399 0.13052,-0.0718 0.037,-0.0319 0.0617,-0.066 0.0738,-0.10228 0.0123,-0.0362 0.0154,-0.0822 0.01,-0.13827 -0.002,-0.0129 -0.0202,-0.0694 -0.0547,-0.16975 l -0.48914,-1.4181 c -0.039,-0.1135 -0.0696,-0.18218 -0.0914,-0.20613 -0.0218,-0.024 -0.0552,-0.0402 -0.10002,-0.0487 -0.0449,-0.009 -0.0987,-0.002 -0.16154,0.0196 l -0.071,0.0246 -0.0212,-0.0612 0.91563,-0.31577 1.13938,1.2604"
       style="fill:#1a1a1a;fill-opacity:1;fill-rule:nonzero;stroke:none;stroke-width:0.00753109" />
    <path
       id="path8"
       d="m 114.77356,161.50643 -0.75153,-0.47597 0.15906,0.87963 z m 0.122,0.0735 -0.69225,0.47145 0.0475,0.24679 c 0.0164,0.082 0.0387,0.14369 0.067,0.18511 0.0374,0.0549 0.0871,0.0803 0.14911,0.0761 0.0365,-0.002 0.10845,-0.0343 0.21577,-0.0962 l 0.0365,0.0535 -0.65181,0.44388 -0.0364,-0.0536 c 0.0631,-0.0584 0.10107,-0.1269 0.11395,-0.20545 0.0127,-0.0785 0.002,-0.21508 -0.0337,-0.40969 l -0.36398,-2.04092 0.0274,-0.0186 1.80106,1.12567 c 0.17103,0.10626 0.29183,0.16433 0.36194,0.17427 0.0532,0.008 0.11109,-0.007 0.1742,-0.0424 l 0.0365,0.0535 -0.94802,0.64571 -0.0365,-0.0536 0.039,-0.0266 c 0.0761,-0.0517 0.12253,-0.0987 0.1388,-0.14098 0.0106,-0.0298 0.006,-0.0592 -0.0135,-0.0882 -0.0118,-0.0173 -0.0268,-0.0331 -0.045,-0.0474 -0.008,-0.007 -0.0469,-0.0337 -0.11725,-0.0789 z m -1.14013,-2.25473 -0.13684,0.82721 -0.12426,0.0846 -0.17389,-0.61567 0.43499,-0.29612"
       style="fill:#1a1a1a;fill-opacity:1;fill-rule:nonzero;stroke:none;stroke-width:0.00753109" />
    <path
       id="path9"
       d="m 101.33041,138.25065 0.70062,1.09102 -0.0906,0.0581 c -0.25093,-0.24099 -0.51791,-0.37775 -0.801,-0.41014 -0.28302,-0.0325 -0.54224,0.0269 -0.77751,0.17796 -0.19649,0.12615 -0.34048,0.29846 -0.431987,0.51678 -0.0915,0.21833 -0.116656,0.44313 -0.07516,0.67441 0.05257,0.29628 0.170807,0.5875 0.354567,0.87384 0.18089,0.28166 0.38122,0.51535 0.60098,0.70091 0.21968,0.18565 0.44335,0.28897 0.67109,0.30998 0.22767,0.021 0.46226,-0.046 0.70363,-0.201 0.19807,-0.1272 0.3517,-0.28701 0.46091,-0.47958 0.10912,-0.19242 0.18699,-0.45337 0.23346,-0.78263 l 0.17442,0.27157 c -0.0582,0.29748 -0.1562,0.54894 -0.29424,0.75446 -0.13797,0.20553 -0.33453,0.39027 -0.58991,0.55422 -0.33581,0.21569 -0.67735,0.33988 -1.02453,0.37271 -0.34726,0.0328 -0.6726,-0.0315 -0.97626,-0.19287 -0.303498,-0.16124 -0.546752,-0.38424 -0.729532,-0.66899 -0.192871,-0.30026 -0.297102,-0.63547 -0.312992,-1.00555 -0.01589,-0.37015 0.06206,-0.71523 0.233614,-1.03515 0.171483,-0.32007 0.407357,-0.57635 0.70755,-0.76922 0.22133,-0.14211 0.48583,-0.24416 0.79355,-0.30622 0.17811,-0.0357 0.28648,-0.0659 0.32519,-0.0908 0.0495,-0.0318 0.0809,-0.0776 0.0938,-0.13729 0.013,-0.0597 -3.8e-4,-0.13255 -0.0403,-0.2184 l 0.0906,-0.0581"
       style="fill:#1a1a1a;fill-opacity:1;fill-rule:nonzero;stroke:none;stroke-width:0.00753109" />
    <path
       id="path10"
       d="m 108.73385,137.09771 -0.014,1.24723 -0.11311,-0.004 c -0.0422,-0.31442 -0.1641,-0.5704 -0.36601,-0.76794 -0.20191,-0.19777 -0.424,-0.30094 -0.66666,-0.3096 -0.18737,-0.007 -0.33761,0.0382 -0.45058,0.13443 -0.11289,0.0963 -0.17171,0.20974 -0.17638,0.34017 -0.003,0.0827 0.0138,0.15688 0.05,0.22262 0.0502,0.0883 0.1327,0.17676 0.24732,0.26547 0.0842,0.0637 0.27978,0.17842 0.58675,0.34395 0.4298,0.2306 0.71748,0.44418 0.86329,0.64082 0.14391,0.19649 0.21147,0.4179 0.20266,0.66417 -0.0112,0.31246 -0.14242,0.57695 -0.39403,0.7934 -0.25154,0.21652 -0.56476,0.31796 -0.93973,0.30463 -0.11763,-0.004 -0.22842,-0.0201 -0.33235,-0.0477 -0.10385,-0.0277 -0.23369,-0.0773 -0.38935,-0.14919 -0.0869,-0.0399 -0.15891,-0.0608 -0.21584,-0.0629 -0.0478,-0.002 -0.099,0.0149 -0.15364,0.0497 -0.0547,0.0349 -0.0998,0.0893 -0.13556,0.16357 l -0.10197,-0.004 0.0503,-1.41163 0.10197,0.004 c 0.0667,0.3999 0.21162,0.70822 0.43492,0.92504 0.22322,0.2169 0.46806,0.32994 0.73466,0.33958 0.20582,0.007 0.37173,-0.0429 0.49803,-0.15062 0.12622,-0.10785 0.19197,-0.23618 0.19731,-0.38507 0.003,-0.0882 -0.0172,-0.17457 -0.0611,-0.25884 -0.0439,-0.0844 -0.11236,-0.16553 -0.2053,-0.24333 -0.0929,-0.0779 -0.25854,-0.18082 -0.4969,-0.309 -0.33408,-0.17931 -0.57342,-0.33046 -0.71816,-0.45337 -0.1446,-0.12298 -0.25433,-0.25839 -0.32919,-0.4066 -0.0748,-0.14791 -0.10897,-0.30931 -0.1028,-0.48388 0.0106,-0.29778 0.12901,-0.54751 0.35525,-0.74919 0.22608,-0.20176 0.50556,-0.2968 0.83828,-0.2849 0.12125,0.004 0.23836,0.0233 0.35118,0.0568 0.0856,0.0251 0.18948,0.0697 0.31141,0.13383 0.12192,0.0642 0.2077,0.0971 0.25726,0.099 0.0479,0.002 0.086,-0.0117 0.1147,-0.0401 0.0285,-0.0285 0.0568,-0.0984 0.0847,-0.20959 l 0.0827,0.003"
       style="fill:#1a1a1a;fill-opacity:1;fill-rule:nonzero;stroke:none;stroke-width:0.00753109" />
    <path
       id="path11"
       d="m 115.66351,140.00381 -0.67765,1.0472 -0.0934,-0.0637 c 0.13202,-0.28844 0.16545,-0.5701 0.10046,-0.84491 -0.0654,-0.27488 -0.19814,-0.48063 -0.39862,-0.61747 -0.15506,-0.10574 -0.30599,-0.14806 -0.45277,-0.1269 -0.14693,0.0212 -0.25711,0.0857 -0.33084,0.19355 -0.0466,0.0683 -0.0721,0.13992 -0.0764,0.21486 -0.005,0.10159 0.0179,0.22036 0.0673,0.35652 0.0371,0.0989 0.14151,0.30019 0.31276,0.60399 0.24025,0.42446 0.36956,0.75876 0.38793,1.00269 0.0167,0.24303 -0.0442,0.46633 -0.18323,0.66989 -0.17623,0.25832 -0.42837,0.4118 -0.75665,0.4606 -0.3282,0.0487 -0.6473,-0.0325 -0.95728,-0.24393 -0.0972,-0.0664 -0.18232,-0.13895 -0.25553,-0.2178 -0.0731,-0.0788 -0.15627,-0.19016 -0.24973,-0.33392 -0.0522,-0.0801 -0.10182,-0.13632 -0.14889,-0.1684 -0.0395,-0.027 -0.0917,-0.0403 -0.15642,-0.0399 -0.0649,3e-4 -0.13209,0.0222 -0.20198,0.0659 l -0.0843,-0.0575 0.79588,-1.16671 0.0844,0.0575 c -0.15695,0.37384 -0.19905,0.71191 -0.12592,1.01444 0.073,0.30245 0.21968,0.52883 0.43997,0.67915 0.17012,0.11613 0.33731,0.16222 0.50172,0.13842 0.1641,-0.0236 0.28829,-0.0971 0.37211,-0.22013 0.0498,-0.0729 0.0787,-0.15672 0.0865,-0.25161 0.008,-0.0948 -0.007,-0.19988 -0.0436,-0.31526 -0.0371,-0.11552 -0.12223,-0.291 -0.25538,-0.52657 -0.18677,-0.32994 -0.30855,-0.58554 -0.36526,-0.76674 -0.0567,-0.18112 -0.0771,-0.35426 -0.0614,-0.51942 0.0158,-0.16508 0.0729,-0.31984 0.17133,-0.46414 0.16795,-0.24612 0.40126,-0.39418 0.70032,-0.44403 0.29891,-0.0499 0.58584,0.019 0.8608,0.20665 0.10039,0.0684 0.18926,0.14686 0.2669,0.23535 0.059,0.067 0.12284,0.16018 0.19167,0.27948 0.0688,0.11936 0.12389,0.19302 0.16493,0.22103 0.0394,0.0269 0.0789,0.036 0.11839,0.0273 0.0393,-0.009 0.10046,-0.0528 0.18346,-0.13195 l 0.0684,0.0466"
       style="fill:#1a1a1a;fill-opacity:1;fill-rule:nonzero;stroke:none;stroke-width:0.00753109" />
    <path
       id="path12"
       style="fill:#1a1a1a;fill-opacity:1;fill-rule:nonzero;stroke:none;stroke-width:0.00753109"
       d="M 107.00742 143.57624 C 106.72825 143.56519 106.39255 143.70631 106.26896 144.05941 C 106.10418 144.53025 106.26899 144.81278 106.48084 144.90691 C 106.69269 145.00101 106.66928 145.07159 106.85756 145.16581 C 107.04591 145.25991 106.76348 145.35435 106.59866 145.44848 C 106.43388 145.54268 106.45748 145.8252 106.33976 145.8252 C 106.22205 145.8252 106.26936 145.58964 106.19868 145.4955 C 106.12808 145.4013 105.89281 145.30688 105.68089 145.30688 C 105.46904 145.30688 105.28028 145.51878 105.16257 145.73063 C 105.04486 145.94255 104.99824 146.22515 104.99824 146.48407 C 104.99824 146.74299 105.30412 146.67276 105.35119 146.83754 C 105.39829 147.00232 105.11588 147.16679 104.83339 147.33157 C 104.5509 147.49635 104.40949 147.5906 104.33885 147.92016 C 104.26825 148.2498 104.245 148.72045 104.15075 149.07358 C 104.05665 149.42664 104.03301 149.68563 103.93887 150.01512 C 103.84477 150.34475 103.98585 150.72145 104.07995 150.81559 C 104.17415 150.90979 104.38588 150.58033 104.38588 150.25077 C 104.38588 149.92121 104.50356 149.52107 104.64477 149.30922 C 104.78598 149.09737 104.95094 149.52069 104.92744 149.80325 C 104.90384 150.08567 104.88015 150.22689 104.85665 150.57995 C 104.83315 150.93316 104.9272 151.5574 104.9507 151.68686 C 104.9743 151.81632 105.03311 151.94557 105.10366 151.98089 C 105.17426 152.01619 105.24503 151.70992 105.32742 151.59229 C 105.40972 151.47458 105.49238 151.28618 105.61009 151.16854 C 105.7278 151.05083 105.71589 151.09826 105.8571 151.09826 C 105.99839 151.09826 105.92369 150.96498 105.79819 150.83936 C 105.67272 150.71375 105.57857 150.49382 105.57857 150.14845 C 105.57857 149.80322 105.95547 149.58382 106.23796 149.77224 C 106.52045 149.96052 106.58277 150.36833 106.52011 150.65074 C 106.45741 150.93331 106.26916 150.71388 106.30049 150.99646 C 106.33189 151.27887 106.48885 151.09011 106.67721 151.24709 C 106.86548 151.40404 106.95979 151.59255 107.05393 151.87496 C 107.14803 152.15753 107.17933 152.40863 107.02241 152.25168 C 106.86538 152.09473 106.77147 152.00046 106.70873 151.74938 C 106.64603 151.49829 106.45731 151.84379 106.52011 152.06358 C 106.58281 152.28319 106.64592 152.53421 106.70873 152.75397 C 106.77153 152.9738 106.77126 153.22488 106.77126 153.47589 C 106.77126 153.72698 106.86523 153.85248 106.99088 154.07224 C 107.1165 154.29199 107.02262 154.54309 106.70873 154.44896 C 106.39491 154.35486 106.52011 154.04069 106.52011 153.91514 C 106.52011 153.78967 106.3946 153.35025 106.17491 153.19322 C 105.95523 153.03627 105.86112 153.25592 105.82971 153.53842 C 105.79821 153.82091 105.76723 154.26074 105.51604 154.22934 C 105.26495 154.19784 105.1079 154.32316 104.7626 154.29186 C 104.4173 154.26046 104.38593 153.88375 104.16625 153.664 C 103.94656 153.44424 103.66396 153.60117 103.66396 153.41285 C 103.66396 153.2245 103.727 152.81638 103.727 152.31421 C 103.727 151.81204 103.72671 151.74945 103.41281 151.52976 C 103.09899 151.31008 102.97347 150.99645 102.59684 150.61974 C 102.22021 150.24311 102.03199 150.43121 101.65529 150.55669 C 101.27866 150.68224 101.05895 150.93341 101.05895 150.93341 L 100.8078 150.65074 C 100.55664 150.36833 100.87078 150.18022 101.09047 149.99187 C 101.31015 149.80359 101.62353 149.33243 101.56072 148.98728 C 101.49802 148.64205 101.40414 148.04578 101.40414 147.92016 C 101.40414 147.79454 101.59246 147.76328 101.52972 147.44939 C 101.46702 147.13541 101.21553 146.94709 101.21553 146.94709 C 101.21553 146.94709 101.18464 146.75862 101.09047 146.4448 C 100.99627 146.13098 100.6507 145.78592 100.6507 145.78592 L 100.27398 145.62883 C 100.27398 145.62883 99.803179 146.09975 99.677635 146.2567 C 99.552092 146.41372 99.253134 146.58919 98.947447 146.72023 C 98.641685 146.85128 98.554293 147.20064 98.466857 147.55016 C 98.379577 147.89953 98.204919 147.8993 97.768191 148.51082 C 97.331463 149.12235 96.89467 149.64674 96.676268 150.03993 C 96.457867 150.43298 96.719921 150.69491 96.763601 151.00059 C 96.807281 151.30643 97.15769 151.28673 97.111901 151.68686 C 97.076201 151.99872 97.112102 153.78185 97.135672 154.37041 C 97.159172 154.95889 97.582565 155.45321 97.935623 155.7357 C 98.288756 156.01811 99.065628 156.37121 99.63061 156.72427 C 100.1956 157.07748 101.27847 157.83076 101.63152 158.20739 C 101.98473 158.58409 102.22007 158.81926 102.26714 159.03111 C 102.31424 159.24303 102.29091 159.59602 102.29091 159.97265 C 102.29091 160.34936 102.87908 160.37306 103.25571 160.4672 C 103.63234 160.5613 103.70305 160.7028 104.05618 160.74987 C 104.40931 160.79697 105.72776 160.84389 106.12789 160.79689 C 106.52809 160.74979 106.69301 160.37334 106.8343 160.0202 C 106.9755 159.66707 107.1636 159.64318 107.28131 159.8786 C 107.39902 160.11402 107.49333 160.20815 107.65803 160.51422 C 107.82281 160.8202 108.27006 160.79705 108.55255 160.86769 C 108.83504 160.93829 109.56455 160.82029 110.01189 160.79689 C 110.45917 160.77329 110.76552 160.60858 111.42472 160.2083 C 112.08384 159.80818 111.9893 159.54918 112.0128 159.10191 C 112.0364 158.65464 112.13077 158.51339 112.29547 158.41926 C 112.46025 158.32516 113.09606 157.5954 113.59048 157.26584 C 114.08482 156.93628 114.88505 156.60647 115.59139 156.1827 C 116.29758 155.759 116.55615 155.50012 116.60322 155.19413 C 116.65032 154.88806 116.7684 154.79409 116.95668 154.62931 C 117.14496 154.4646 117.07407 154.18192 117.14479 153.49915 C 117.21539 152.81653 117.05061 152.13385 117.19181 151.75714 C 117.33317 151.38051 117.38052 151.05129 117.5923 150.74531 C 117.80415 150.43924 117.49792 149.89768 117.19181 149.56812 C 116.88575 149.23856 116.25039 148.39075 116.03839 148.10826 C 115.82661 147.82576 115.85011 147.56684 115.73247 147.26077 C 115.61476 146.95478 115.42625 146.79011 115.1909 146.74297 C 114.95548 146.69587 114.7906 146.41375 114.43746 145.99005 C 114.08441 145.56628 113.87291 145.58946 113.80235 145.6836 C 113.73165 145.7778 113.42537 145.82518 113.23701 146.0841 C 113.04866 146.34309 113.04891 146.81377 113.04891 146.81377 C 113.04891 146.81377 112.884 146.8841 112.71922 147.26077 C 112.55436 147.6374 112.79017 147.75519 112.90784 147.80234 C 113.02555 147.84944 112.90784 148.03764 112.90784 148.32014 C 112.90784 148.60263 112.67219 148.76754 112.67219 149.28545 C 112.67219 149.80336 113.00183 149.87411 113.21376 150.03889 C 113.42561 150.20367 113.42536 150.50958 113.40186 150.60372 C 113.37826 150.69782 113.09607 150.93338 112.95486 150.81559 C 112.81365 150.69788 112.57796 150.58003 112.29547 150.48589 C 112.01298 150.39179 111.75388 150.53333 111.54203 150.83936 C 111.33011 151.14535 110.76526 151.47462 110.60048 152.01603 C 110.43578 152.55744 110.57698 152.91073 110.60048 153.19322 C 110.62408 153.47571 110.38869 153.64074 110.22376 153.64074 C 110.05905 153.64074 109.8474 153.4521 109.77676 153.24025 C 109.70616 153.02833 109.63562 152.32243 109.47084 151.89873 C 109.30613 151.47503 109.14087 150.98056 109.11737 150.46264 C 109.09377 149.94473 109.14109 149.82673 109.35301 149.59138 C 109.56479 149.35589 109.37632 148.97966 109.28222 148.6736 C 109.18802 148.36753 109.0938 147.89656 109.11737 147.33157 C 109.14087 146.76659 108.99959 146.27222 108.95252 145.84845 C 108.90542 145.42475 108.2231 145.18967 108.03475 145.09553 C 107.84639 145.00133 107.65812 145.0719 107.56398 144.88365 C 107.46988 144.69529 107.7758 144.50658 107.82287 144.31831 C 107.86997 144.12995 107.54055 143.77688 107.25805 143.63567 C 107.18743 143.60035 107.10048 143.57992 107.00742 143.57624 z M 100.40317 145.99521 C 100.49507 145.99588 100.55316 146.04482 100.4781 146.10735 C 100.33689 146.22506 100.12523 146.50771 100.07813 146.64892 C 100.03106 146.79013 99.889441 146.93142 99.724661 146.90782 C 99.55988 146.88425 99.371933 146.78997 99.607355 146.57812 C 99.719342 146.47728 100.0072 146.34304 100.14841 146.13112 C 100.2146 146.03182 100.32209 145.99462 100.40317 145.99521 z M 113.82199 146.02674 C 113.90306 146.02615 114.01056 146.06334 114.07676 146.16264 C 114.21804 146.37456 114.50634 146.50881 114.61833 146.60965 C 114.85375 146.8215 114.66528 146.91574 114.5005 146.93934 C 114.33572 146.96291 114.19465 146.82165 114.14755 146.68044 C 114.10048 146.53923 113.88879 146.25658 113.74758 146.13887 C 113.67252 146.07634 113.73011 146.0274 113.82199 146.02674 z M 100.64864 146.26651 C 100.70159 146.2724 100.74873 146.33136 100.78403 146.46082 C 100.85465 146.71974 100.94895 146.88432 100.90185 147.07267 C 100.85478 147.26102 100.57213 147.4493 100.36028 147.70829 C 100.14843 147.96721 100.03071 148.22594 99.98356 148.53201 C 99.93649 148.83807 100.00733 149.04994 100.00733 149.3795 C 100.00733 149.70913 99.724792 149.92114 99.583584 150.08592 C 99.442303 150.2507 99.512699 150.53299 99.606839 150.69777 C 99.700977 150.86255 99.866254 151.16891 99.866254 151.47498 C 99.866254 151.78097 99.654337 151.96891 99.701407 152.22791 C 99.748552 152.48683 99.913191 152.51037 100.00733 152.65165 C 100.10147 152.79286 100.33677 153.1227 100.52513 153.31105 C 100.7134 153.49933 101.11343 153.97001 101.34885 154.34664 C 101.58427 154.72327 101.81974 154.98212 101.93745 155.28819 C 102.05516 155.59417 102.3847 155.85303 102.66712 156.06488 C 102.94961 156.2768 103.27939 156.51227 103.53838 156.65348 C 103.79733 156.79477 103.8914 156.34787 103.58541 156.27727 C 103.27935 156.20663 103.02049 156.01797 102.64386 155.66491 C 102.26723 155.3117 102.10234 155.02924 101.89042 154.60554 C 101.67857 154.18184 101.37276 153.85231 101.0667 153.54617 C 100.76074 153.24018 100.7606 153.0051 100.737 152.79325 C 100.7134 152.58133 100.68998 152.03975 100.68998 151.71011 C 100.68998 151.38055 100.92564 151.28622 101.13749 151.12152 C 101.34934 150.95672 101.67873 150.86262 101.96122 150.86262 C 102.24371 150.86262 102.40841 151.09808 102.47901 151.28636 C 102.54958 151.47479 102.7848 151.40409 103.09086 151.75714 C 103.39685 152.11028 103.23246 152.34572 103.23246 152.67543 C 103.23246 153.00492 103.11475 153.28722 103.23246 153.5932 C 103.35017 153.89927 103.50734 153.93346 103.70323 154.06397 C 104.05628 154.29939 104.645 154.77067 104.88042 155.26493 C 105.11584 155.75935 105.23328 155.97085 105.49227 156.1827 C 105.75119 156.39455 106.08087 156.8187 106.45758 157.12477 C 106.83424 157.43075 107.03598 158.00591 106.92836 158.53708 C 106.8029 159.15689 106.54386 159.84726 106.33201 160.12975 C 106.12016 160.41226 105.85335 160.3809 105.35894 160.3809 C 104.86459 160.3809 103.96228 160.3027 103.3973 160.0202 C 102.83228 159.73771 102.76168 159.3375 102.76168 158.9138 C 102.76168 158.48995 102.66714 158.34859 102.40822 158.20739 C 102.1493 158.06618 101.77307 157.54828 101.18452 157.101 C 100.59604 156.65373 100.00712 155.9003 99.512788 155.45303 C 99.018447 155.00575 98.665365 154.65283 98.194522 154.20556 C 97.723753 153.75828 98.006375 153.38157 98.053445 152.72245 C 98.100515 152.06326 98.100314 151.4983 98.029674 151.02746 C 97.959034 150.55661 97.841758 150.27397 97.959394 149.85027 C 98.077105 149.4265 98.19488 149.33234 98.28909 149.00278 C 98.383228 148.67322 98.383009 148.17927 98.524217 147.94393 C 98.6655 147.7085 98.688934 147.44921 98.830142 147.16672 C 98.97135 146.8842 99.348282 147.04934 99.536559 147.09644 C 99.724912 147.14354 99.960172 147.21375 100.10138 147.0489 C 100.24266 146.88412 100.36039 146.5548 100.4781 146.39002 C 100.53696 146.30761 100.59568 146.26063 100.64864 146.26651 z M 113.57653 146.29752 C 113.62949 146.29163 113.68821 146.33915 113.74706 146.42154 C 113.86485 146.58632 113.98258 146.91557 114.12378 147.08042 C 114.26507 147.24523 114.50084 147.17454 114.68912 147.12744 C 114.87747 147.0804 115.25381 146.91575 115.39502 147.19824 C 115.53638 147.48073 115.56025 147.73951 115.70146 147.97494 C 115.8427 148.21028 115.84249 148.70474 115.93659 149.0343 C 116.03073 149.36386 116.14858 149.45803 116.26629 149.8818 C 116.38396 150.3055 116.26609 150.58814 116.19549 151.05899 C 116.12489 151.52975 116.12514 152.09485 116.17224 152.75397 C 116.21931 153.41316 116.50148 153.78937 116.03064 154.23657 C 115.55995 154.68384 115.20672 155.03728 114.71238 155.48456 C 114.21796 155.93183 113.62964 156.68525 113.04116 157.13252 C 112.45261 157.5798 112.07595 158.0977 111.81695 158.23891 C 111.55799 158.38011 111.464 158.52111 111.464 158.94481 C 111.464 159.36858 111.39336 159.76871 110.82838 160.0512 C 110.2634 160.33372 109.46295 160.28685 108.96854 160.28685 C 108.47427 160.28685 108.0819 160.44376 107.8699 160.16127 C 107.65805 159.87878 107.46196 159.2193 107.29733 158.56809 C 107.16463 158.04264 107.39155 157.46183 107.7681 157.15577 C 108.14488 156.84978 108.47398 156.42608 108.7329 156.21423 C 108.99182 156.0023 109.10984 155.79036 109.34526 155.29594 C 109.58068 154.8016 110.16939 154.33091 110.52245 154.09549 C 110.71833 153.9649 110.87551 153.93078 110.99322 153.62472 C 111.11093 153.31873 110.99322 153.03599 110.99322 152.70643 C 110.99322 152.37687 110.82831 152.1418 111.1343 151.78866 C 111.44036 151.43553 111.67555 151.50624 111.74615 151.31789 C 111.81679 151.12961 111.9819 150.89414 112.26446 150.89414 C 112.54695 150.89414 112.87634 150.98825 113.08819 151.15304 C 113.30012 151.31774 113.53519 151.412 113.53519 151.74163 C 113.53519 152.0712 113.51166 152.6124 113.48816 152.82425 C 113.46458 153.0361 113.46496 153.27171 113.15898 153.5777 C 112.85299 153.88376 112.54659 154.21336 112.33474 154.63706 C 112.12289 155.06076 111.95845 155.34329 111.58182 155.69643 C 111.20512 156.04948 110.94582 156.23768 110.63976 156.30828 C 110.3338 156.37892 110.42786 156.82621 110.68678 156.685 C 110.94577 156.54372 111.27549 156.30826 111.55805 156.09641 C 111.84047 155.88456 112.17001 155.62569 112.28772 155.31971 C 112.40536 155.01364 112.64097 154.75479 112.87631 154.37816 C 113.11174 154.00153 113.51168 153.5304 113.70004 153.34205 C 113.88839 153.1537 114.12373 152.82446 114.21783 152.68318 C 114.31205 152.54189 114.47717 152.51835 114.52427 152.25943 C 114.57134 152.00043 114.35943 151.81206 114.35943 151.50599 C 114.35943 151.2 114.52423 150.89415 114.61833 150.72929 C 114.71243 150.56451 114.78279 150.28222 114.64158 150.11744 C 114.50037 149.95266 114.21783 149.74059 114.21783 149.41103 C 114.21783 149.08139 114.2887 148.86959 114.2416 148.56353 C 114.19453 148.25754 114.07666 147.99873 113.86488 147.73981 C 113.65288 147.48082 113.37041 147.29254 113.32331 147.10419 C 113.27624 146.91584 113.37044 146.75074 113.44114 146.49182 C 113.47642 146.36238 113.52357 146.30341 113.57653 146.29752 z M 101.08117 147.33777 C 101.19106 147.3373 101.27567 147.44045 101.23155 147.54344 C 101.1609 147.70822 100.66661 148.22635 100.5489 148.4147 C 100.43115 148.60305 100.38413 148.50856 100.33703 148.39093 C 100.28996 148.27322 100.43119 148.17927 100.5489 147.94393 C 100.63114 147.77945 100.7133 147.73164 100.87808 147.47264 C 100.93987 147.37553 101.01523 147.33805 101.08117 147.33777 z M 113.14451 147.36929 C 113.21045 147.36956 113.28526 147.40707 113.34709 147.50416 C 113.51179 147.76308 113.59458 147.81046 113.67678 147.97494 C 113.79445 148.21028 113.93575 148.30483 113.88865 148.42246 C 113.84158 148.54016 113.79441 148.63399 113.67678 148.44571 C 113.55899 148.25744 113.06474 147.73974 112.99414 147.57496 C 112.94999 147.47202 113.03462 147.36884 113.14451 147.36929 z M 107.21309 147.62354 C 107.36998 147.60922 107.55741 147.69864 107.63012 147.90207 C 107.71312 148.13463 107.7959 148.26728 107.7128 148.41677 C 107.6298 148.56626 107.56379 148.61612 107.61359 148.74905 C 107.6633 148.88195 107.8293 148.81513 107.8792 148.83173 C 107.92899 148.84837 108.01221 148.94826 108.09521 149.1144 C 108.17827 149.28046 108.31093 149.57899 108.36083 149.79498 C 108.41073 150.0109 108.47716 150.07764 108.46056 150.3102 C 108.44399 150.54269 108.1614 150.7084 108.02855 150.85797 C 107.89575 151.00746 107.9292 151.20671 107.9624 151.4724 C 107.99561 151.73803 108.14469 151.9876 108.17789 152.22016 C 108.21111 152.45272 108.3275 152.8177 108.3939 153.03354 C 108.46025 153.24954 108.52674 153.56504 108.62644 153.63144 C 108.72615 153.69779 108.77615 153.73124 108.84245 153.84745 C 108.90872 153.96373 108.79281 154.09653 108.69311 154.09653 C 108.59347 154.09653 108.46014 154.2459 108.41044 154.2128 C 108.36074 154.17959 108.31114 153.91412 108.19494 153.79784 C 108.07873 153.68148 107.98501 153.47398 107.92881 153.24955 C 107.87902 153.05013 107.84603 152.75116 107.63012 152.45218 C 107.41423 152.15327 107.46398 152.13704 107.39758 151.87134 C 107.33123 151.60557 107.18151 151.32293 107.19811 151.12358 C 107.21461 150.92431 107.33104 150.62558 107.29784 150.55928 C 107.2647 150.49285 107.14847 150.21028 107.01569 150.37634 C 106.88296 150.5424 107.01524 150.57585 106.99864 150.70862 C 106.982 150.8414 106.79983 151.1072 106.65034 151.0409 C 106.50074 150.97447 106.61658 150.95779 106.63328 150.84143 C 106.64995 150.72515 106.58394 150.32639 106.65034 150.16033 C 106.71674 149.99427 106.69982 149.76181 106.73302 149.5459 C 106.76623 149.33005 106.81604 149.19737 106.9821 149.01467 C 107.14815 148.83199 107.16487 148.96486 107.18157 148.88186 C 107.19825 148.79878 107.18143 148.78202 107.08183 148.69892 C 106.98212 148.61593 106.83259 148.4667 106.76609 148.26743 C 106.69959 148.06815 106.98244 147.68584 107.1485 147.63594 C 107.16925 147.62971 107.19068 147.62558 107.21309 147.62354 z M 101.07755 148.29326 C 101.14473 148.29358 101.19178 148.38092 101.23155 148.57955 C 101.30206 148.93261 101.39618 149.40323 101.16075 149.61515 C 100.92541 149.827 100.73714 150.08603 100.59593 150.20374 C 100.45464 150.32153 100.47822 150.58026 100.59593 150.72154 C 100.71354 150.86275 100.737 151.09826 100.737 151.09826 C 100.737 151.09826 100.43132 151.02734 100.40782 151.16854 C 100.38432 151.30983 100.28966 151.96923 100.31326 152.20465 C 100.33675 152.44003 100.0782 152.58111 100.0311 152.39276 C 99.983919 152.20448 100.12515 151.66311 100.12515 151.40419 C 100.12515 151.14519 100.05449 150.72134 99.91328 150.65074 C 99.732085 150.56022 99.748257 150.22729 99.936534 149.99187 C 100.12488 149.75652 100.26623 149.73259 100.26623 149.42653 C 100.26623 149.12062 100.28974 148.95569 100.4781 148.79091 C 100.66637 148.62613 100.69033 148.64981 100.8786 148.43796 C 100.961 148.34527 101.0253 148.29302 101.07755 148.29326 z M 113.14813 148.32479 C 113.2004 148.32454 113.26468 148.37683 113.34709 148.46948 C 113.53537 148.68141 113.55923 148.65765 113.74758 148.82243 C 113.93591 148.98721 113.95945 149.15191 113.95945 149.45805 C 113.95945 149.76397 114.10028 149.78752 114.28863 150.02287 C 114.47698 150.25829 114.4936 150.59167 114.3124 150.68227 C 114.17115 150.75284 114.10053 151.17679 114.10053 151.43571 C 114.10053 151.69471 114.24168 152.236 114.19458 152.42428 C 114.14751 152.61263 113.88883 152.47153 113.91243 152.23618 C 113.93597 152.00068 113.84136 151.34127 113.81786 151.20006 C 113.79421 151.05886 113.48868 151.12978 113.48868 151.12978 C 113.48868 151.12978 113.51205 150.89434 113.62976 150.75306 C 113.74747 150.61185 113.77105 150.35254 113.62976 150.23475 C 113.48856 150.11712 113.30043 149.85852 113.06493 149.64667 C 112.82955 149.43475 112.92354 148.96362 112.99414 148.61056 C 113.03383 148.41197 113.08093 148.32511 113.14813 148.32479 z M 97.947508 148.95317 C 97.994596 148.94435 98.0067 149.01488 97.983165 149.14437 C 97.936021 149.40322 97.794478 149.59159 97.629698 149.99187 C 97.464919 150.39207 97.653109 150.60397 97.723749 151.05124 C 97.794389 151.49859 97.794345 152.62855 97.770775 153.26402 C 97.747278 153.89972 97.677102 154.51174 97.983165 154.79416 C 98.289154 155.07665 98.712728 155.59453 99.065786 155.85353 L 99.065786 155.85301 C 99.418843 156.11184 99.701203 156.51254 99.206863 156.20648 C 98.712597 155.90042 98.171156 155.54713 98.053445 155.45303 C 97.715449 155.18274 97.535491 154.7 97.464851 154.58229 C 97.394208 154.46465 97.323774 154.25235 97.323774 153.80507 L 97.323774 151.56903 C 97.323774 151.19232 97.182387 151.09791 97.041104 150.90964 C 96.899897 150.72128 96.735291 150.43912 96.853002 150.25077 C 96.970713 150.06242 97.064624 149.9918 97.252977 149.82702 C 97.441254 149.66224 97.465073 149.61506 97.700495 149.23843 C 97.818171 149.05013 97.900421 148.962 97.947508 148.95317 z M 116.27817 148.98418 C 116.32524 148.99302 116.40752 149.0816 116.52519 149.26995 C 116.76069 149.64651 116.78442 149.69376 116.9727 149.85854 C 117.16098 150.02332 117.25497 150.09394 117.37268 150.28229 C 117.49039 150.47064 117.32542 150.75281 117.18406 150.94116 C 117.04285 151.12951 116.90191 151.22385 116.90191 151.60056 L 116.90191 153.83659 C 116.90191 154.28379 116.83143 154.49609 116.76083 154.61381 C 116.69026 154.73144 116.51008 155.21427 116.17224 155.48456 C 116.05438 155.57869 115.51324 155.93201 115.01882 156.238 C 114.52448 156.54406 114.80676 156.14345 115.15989 155.88453 C 115.5131 155.62553 115.93645 155.10765 116.24252 154.82516 C 116.54847 154.54274 116.47789 153.93116 116.45439 153.29554 C 116.43089 152.65999 116.43133 151.53003 116.50193 151.08276 C 116.57243 150.63542 116.76084 150.42352 116.59598 150.02339 C 116.4312 149.62311 116.28962 149.43482 116.24252 149.1759 C 116.21898 149.04639 116.2311 148.97534 116.27817 148.98418 z M 101.69922 151.17733 C 101.47297 151.16868 101.24886 151.33343 101.04293 151.49824 C 100.80755 151.68652 100.94905 151.80426 100.97265 152.08683 C 100.99615 152.36925 101.01967 152.51061 101.01967 152.6284 C 101.01967 152.74607 101.25527 152.84 101.34937 152.8165 C 101.44351 152.793 101.70432 152.68515 101.89042 152.72245 C 102.00813 152.74595 102.31428 152.69868 102.43199 152.69868 C 102.5496 152.69868 102.54947 152.32234 102.57307 151.99278 C 102.59664 151.66322 102.64364 151.61604 102.40822 151.40419 C 102.1728 151.19226 102.05536 151.26291 101.79637 151.19231 C 101.764 151.18349 101.73154 151.17856 101.69922 151.17733 z M 112.52646 151.20885 C 112.49414 151.21009 112.46169 151.21501 112.42931 151.22383 C 112.17039 151.29447 112.05237 151.22386 111.81695 151.43571 C 111.58157 151.64764 111.6286 151.69474 111.6521 152.0243 C 111.67567 152.35386 111.67605 152.7302 111.79369 152.7302 C 111.9114 152.7302 112.21703 152.77757 112.33474 152.75397 C 112.52084 152.71675 112.78221 152.82442 112.87631 152.84802 C 112.97045 152.87152 113.20601 152.77763 113.20601 152.65992 C 113.20601 152.54213 113.22943 152.40085 113.25303 152.11835 C 113.27653 151.83586 113.41766 151.71812 113.18224 151.52976 C 112.97631 151.36495 112.75275 151.20017 112.52646 151.20885 z M 101.82582 151.35716 C 101.92587 151.35716 102.00815 151.38039 102.10229 151.42744 C 102.29051 151.52166 102.36119 151.61624 102.36119 151.89873 C 102.36119 152.18122 102.3849 152.46338 102.22012 152.43978 C 102.05534 152.41618 101.86721 152.46338 101.77311 152.43978 C 101.49815 152.37108 101.37243 152.65203 101.2548 152.41653 C 101.13709 152.18119 101.11399 152.11065 101.13749 151.89873 C 101.16106 151.68688 101.11393 151.52164 101.44342 151.42744 C 101.6082 151.38039 101.72577 151.35716 101.82582 151.35716 z M 112.39986 151.38868 C 112.4999 151.38868 112.61744 151.41186 112.78226 151.45896 C 113.11184 151.5531 113.06459 151.71796 113.08819 151.92973 C 113.11177 152.14166 113.08807 152.21219 112.97036 152.44753 C 112.85273 152.68298 112.72761 152.4025 112.45257 152.4713 C 112.35843 152.4949 112.17035 152.4477 112.00557 152.4713 C 111.84079 152.49487 111.86397 152.2123 111.86397 151.92973 C 111.86397 151.64732 111.93504 151.55306 112.12339 151.45896 C 112.21753 151.41186 112.29981 151.38868 112.39986 151.38868 z M 105.71706 151.53131 C 105.67783 151.53559 105.62578 151.72463 105.5827 151.80003 C 105.5296 151.89283 105.50293 152.03885 105.44989 152.15814 C 105.39699 152.27744 105.3041 152.2771 105.22458 152.43616 C 105.14508 152.59521 105.19808 152.7811 105.22458 152.91365 C 105.25098 153.04619 105.28382 153.33295 105.23802 153.45729 C 105.14522 153.70913 105.27787 153.81512 105.35739 153.78854 C 105.43689 153.76194 105.4635 153.66887 105.47676 153.49656 C 105.48996 153.32417 105.46356 153.19185 105.51656 153.05938 C 105.56956 152.92691 105.64872 152.87399 105.71499 152.80772 C 105.78129 152.74142 105.72829 152.56875 105.71499 152.39637 C 105.70179 152.22406 105.79481 152.06486 105.80801 151.93232 C 105.82131 151.79992 105.78166 151.68064 105.74186 151.56128 C 105.73442 151.5389 105.72611 151.53032 105.71706 151.53131 z M 107.38001 152.93691 C 107.40283 152.93716 107.43051 152.94256 107.46372 152.95086 C 107.59663 152.98399 107.58 153.16627 107.58 153.3989 L 107.58 153.93065 C 107.58 154.16316 107.66345 154.08025 107.82959 154.14665 C 107.99569 154.21308 107.91227 154.31222 107.91227 154.39522 C 107.91227 154.47832 107.67984 154.51172 107.54692 154.47842 C 107.41399 154.44521 107.28143 154.39567 107.24823 154.27946 C 107.21493 154.16326 107.19833 153.7977 107.24823 153.6981 C 107.29803 153.59846 107.35908 153.36241 107.31438 153.11674 C 107.28953 152.97977 107.31154 152.93616 107.38001 152.93691 z " />
  </g>
</svg>
